<?xml version="1.0" encoding="utf-8"?>
<!-- Generator: Adobe Illustrator 21.0.0, SVG Export Plug-In . SVG Version: 6.00 Build 0)  -->
<svg version="1.1" id="图层_1" xmlns="http://www.w3.org/2000/svg" xmlns:xlink="http://www.w3.org/1999/xlink" x="0px" y="0px"
	 viewBox="0 0 1559.1 850.4" style="enable-background:new 0 0 1559.1 850.4;" xml:space="preserve">
<style type="text/css">
	.st0{fill:#EC6B01;}
	.st1{fill:#FFFFFF;}
</style>
<path class="st0" d="M428.5,380.8c-6.1,11.5-12.3,22.8-17.9,34.6c-12.3,26.1-24.3,52.1-36.7,78.2c-0.9,1.9-2.6,3.5-3.6,5.4
	c-4.2,8.3-6.6,22.1-12.7,24c-14.9,4.5-31.5,4.3-47.4,4c-3.3,0-7.3-8.5-9.4-13.7c-17.2-43.6-33.9-87.6-50.9-131.4
	c-5.4-13.7-11.3-27.3-16.9-40.8l-5.2,1v47.3c0,44.5-0.3,89.2,0.3,133.7c0.2,12.5-4.7,16.5-16.2,14.9c-8.9-1-19.5,0.3-25.9-4.2
	c-6.6-4.7-12.5-15.1-12.7-23.1c-1-63.6-1-127.2-0.5-190.7c0.2-24.3,16.2-35.8,39.8-30.2c13,3.1,25.5,8.7,38.8,10.3
	c23.6,2.8,29.5,19.1,34.2,38.2c2.8,10.9,8.2,21.2,12.3,31.6c11.3,29.2,22.4,58.6,33.7,87.8c1.2,3,3.5,5.6,7.1,11.5
	c7.1-14.1,13.4-25.4,18.9-37.2c12.3-26.1,24.3-52.3,36.3-78.6c3.6-8,8.7-11.1,17.4-8.2c8.5,3,17.2,5,25.7,8
	c13.7,4.7,20,13.2,20.2,28.2c0.2,41,0.2,82.2,0,123.2c-0.2,57.9-41.9,101.3-94.6,106c-43.8,3.8-87.6,8.7-131.4,13
	c-25.4,2.4-50.6,5.6-76,7.3c-43.5,2.8-81.5-24.9-93.7-66.6c-3.8-12.9-3.1-27.1-3.1-40.8c-0.2-72.7-1-145.3,0.9-218
	c0.9-30.4,19.1-53.7,44.7-70.4c32.5-21.4,66.2-18.2,101.7-7.3c70.4,21.6,141.3,41.2,211.9,61.9c4.3,1.2,7.5,6.4,11.1,9.7
	c-4.5,2.1-9.6,6.8-13.4,5.9c-18.1-3.6-36-8.7-53.9-13.7c-54.4-15.3-108.5-31.5-163-46.1c-36.7-9.7-78.2,22.9-77,62.4
	c1.6,48.8-0.3,97.7-0.5,146.5c0,24.7,0.5,49.4,1,73.9c0.7,26.4,25.5,52.8,51.8,52c36.7-1.4,73.2-5.2,109.7-8.5
	c22.2-1.9,44.5-6.4,66.7-6.4c44.3-0.2,81.9-31.8,83.6-74.7c0.9-24.2,1.2-48.3,1.2-72.7c0-12-1.4-24-2.3-36
	C431.4,381.8,429.9,381.3,428.5,380.8L428.5,380.8z"/>
<path class="st1" d="M995.8,483.8c-3.6,26.6-7.3,53.2-10.9,80.1h-42.8c3.3-26.9,6.8-53.2,10.1-79.8c-13.4-3.3-23.1-2.1-32.2,8.7
	c-15.6,18.4-32.8,35.6-49.4,53c-13,13.7-28,22.9-48.8,17.4c-0.5-9.9,0.3-17.6,10.1-25.7c18.8-15.6,34.6-34.6,54.1-54.6h-54.2
	c1.2-8.2,2.1-14.6,3.1-22.1h120.8c0.7-7.1,1.4-13.4,2.1-20.9H836.9c4.7-33.7,8.5-66,13.9-98.2c2.8-17,22.6-31.6,41.2-31.6
	c80.5-0.3,160.9-0.2,241.4,0c2.1,0,4.2,0.7,7.3,1c-3.8,27.1-7.1,53.9-11.8,80.3c-1.9,10.8-4.7,22.1-10.3,31.1
	c-7,11.5-18.9,17.2-32.8,17.2h-83.9c-1,6.8-1.9,13-3,20.5h121.7c-1.2,8-2.3,14.4-3.5,21.9h-60.8c18.4,23.1,27.1,48.8,52.5,64
	c-0.7,4.7-1.7,10.8-2.6,16.9c-19.3,5.6-32.8-1.7-43.8-16.9c-12-16.9-25.5-32.8-36-50.4C1018.7,482.9,1009.5,480.8,995.8,483.8
	L995.8,483.8z M1012.5,366.1c27.1,0,51.6,0.2,76.1-0.2c2.6,0,7.1-2.6,7.5-4.9c1.7-8.7,2.4-17.6,3.5-27.1h-83.4
	C1014.9,344.2,1013.9,354.1,1012.5,366.1z M884.5,363.8c2.3,1,3.5,2.1,4.5,2.1c15.5,0.2,30.9,0.2,46.4,0.2
	c30.6,0.2,30.6,0.2,36.3-29.2c0.2-0.7-0.3-1.6-0.9-3.5c-22.4,0-45.4-1-68,0.7c-5.9,0.5-11.8,9.4-16.2,15.5
	C884.4,352.9,885.2,358.6,884.5,363.8L884.5,363.8z M964.7,385.9h-83.1c-1.4,10.6-2.8,20.2-4.2,30.6h83.4
	C962.2,405.9,963.5,396.2,964.7,385.9L964.7,385.9z M1005.2,417.4h58.1c22.9,0,30.1-8.3,27.1-31.5H1009
	C1007.8,396.5,1006.6,406.1,1005.2,417.4z M535.7,440.7h-33.9c0.9-8,1.7-14.4,2.4-21.7h136.6c-2.1-11.5-3.8-21.7-5.7-32.8h41.5
	c2.6,10.4,5.2,21,8.2,32.7h123.6c-1.2,7.6-2.3,14.1-3.5,21.6H578.5c-3.6,26.1-7.8,51.1-10.6,76.1c-1.6,14.8,10.3,26.1,25.5,25.9
	c61.9,0,123.6-0.3,185.5-0.3c3.5,0,7,0.5,12,0.9c-1,7.1-1.9,13.9-3,21.4H573.8c-34.4,0-52.8-21.4-47.8-54.9
	C529.1,487.4,532.2,465.3,535.7,440.7L535.7,440.7z M1301.9,359.8h40.7c15.3,56.7,30.6,113.1,47.1,174c8.2-18.9,14.8-34.4,21.4-50.1
	c16.3-38.4,32.7-76.6,48.7-115.2c3-7,6.6-9.7,14.1-9.4c11.5,0.5,23.1,0.2,36.7,0.2c-12.2,25.2-23.5,48.8-34.8,72.3
	c-17.4,36.5-34.9,72.8-52,109.5c-7.6,16.3-18.9,24.2-37.4,23.5c-27.8-1-27.6-0.3-35.1-27.1c-15.3-54.6-30.8-109-46.1-163.6
	C1303.9,369.8,1303.2,365.6,1301.9,359.8L1301.9,359.8z M1200.7,383.7h-37.2c1-8.9,2.1-16,3-23.8h36.8c1.7-13.2,4.2-25.7,4.9-38.4
	c0.5-9.2,4-12,12.7-11.5c9,0.5,18.1,0.2,29.4,0.2c-1.6,16.3-3,31.8-4.5,48.7h40.5v14.9c0,7.1-3.3,9.6-10.4,9.6
	c-10.6,0-24.9-3-31.1,2.6c-6.1,5.6-4.3,20-5.9,30.6c-4,30.2-8.3,60.5-11.8,90.7c-2.6,23.5,7.3,33.7,30.6,34.1h15.8
	c-1,8-1.9,15.1-3.1,24.2c-21-1.2-41.7-0.7-61.9-3.8c-18.2-3-26.8-14.4-25.5-33c1.4-23.6,4.9-47.1,7.8-70.6
	C1193.4,434.1,1197,410.4,1200.7,383.7L1200.7,383.7z M727.4,383.1c1.2-9.7,2.3-17.2,3.3-25.7H590.3c-1.4,8.2-2.8,16.3-4.3,25.2
	h-42.4c0.7-8.5,1.6-16.5,2.4-25.7h-33.7c1.2-7.6,2.3-13.7,3.3-21.4c7.8,0,15.6-0.5,23.3,0.2c8.9,0.7,13.4-2.6,12.5-11.6
	c-1-11.6,4.3-15.1,15.5-14.1c8.9,0.9,18.1,0.2,28.9,0.2c-0.7,8.2-1.4,15.5-2.1,24.3c4,0.3,8,1,12.2,1c38.4,0,76.8-0.5,115.4,0.3
	c11.1,0.2,15.1-4.5,14.6-13.9c-0.5-10.4,4.5-12.3,13.4-11.8c9.9,0.5,19.6,0.2,29.9,0.2c0.3,2.6,0.9,4.2,0.9,5.7
	c-1.6,19.3-1.6,19.3,17.6,19.6c6.8,0.2,13.7,0,21.4,0c-1,7.5-2.1,13.7-3.1,20.7h-40c-1.2,4-3.6,7.6-3.3,11.1
	c1.4,14.9-6.6,17.2-18.9,15.8C745.5,382.4,737.3,383.1,727.4,383.1L727.4,383.1z"/>
</svg>
