<?xml version="1.0" encoding="utf-8"?>
<!-- Generator: Adobe Illustrator 21.0.0, SVG Export Plug-In . SVG Version: 6.00 Build 0)  -->
<svg version="1.1" id="图层_1" xmlns="http://www.w3.org/2000/svg" xmlns:xlink="http://www.w3.org/1999/xlink" x="0px" y="0px"
	 viewBox="0 0 74.1 57.6" style="enable-background:new 0 0 74.1 57.6;" xml:space="preserve">
<style type="text/css">
	.st0{fill:none;stroke:#FFFFFF;stroke-linecap:round;stroke-linejoin:round;stroke-miterlimit:10;}
	.st1{fill:none;stroke:#FFFFFF;stroke-width:2;stroke-linecap:round;stroke-linejoin:round;stroke-miterlimit:10;}
	.st2{opacity:0.2;fill:#FFFFFF;enable-background:new    ;}
</style>
<g>
	<path class="st0" d="M8.9,49.8h15.3H8.9z"/>
	<polygon class="st0" points="8.9,50 25.2,53.9 24.2,50 	"/>
	<polygon class="st0" points="25.2,53.9 24.2,50 8.9,50 	"/>
	<rect x="1" y="45.8" class="st1" width="28" height="4"/>
	<rect x="29" y="45.8" class="st1" width="44" height="4"/>
	<rect x="1" y="1" class="st1" width="72.1" height="44.8"/>
	<polyline class="st0" points="64.5,50.1 36.6,54.5 38.5,51 44.6,50 	"/>
	<polyline class="st0" points="72.5,50.1 72.6,50.8 33.2,57.1 32.9,55.2 64.4,50.1 	"/>
	<path class="st0" d="M45.4,50.8c0.5-0.1,1,0.3,1,0.8c0.1,0.5-0.2,0.9-0.7,1s-0.9-0.3-1-0.7C44.6,51.3,45,50.9,45.4,50.8"/>
	<polygon class="st0" points="25.2,53.9 24.2,50 8.9,50 	"/>
	<polygon class="st0" points="25.2,53.9 24.2,50 8.9,50 	"/>
	<polyline class="st0" points="1.5,50.3 27.9,56.5 28.4,54.6 8.8,50.1 	"/>
	<rect x="1" y="45.8" class="st1" width="28" height="4"/>
	<polygon class="st1" points="1,49.8 29,49.8 29,45.8 1,45.8 1,49.8 29,49.8 29,45.8 1,45.8 	"/>
	<rect x="29" y="45.8" class="st1" width="44" height="4"/>
	<polygon class="st1" points="29,49.8 73.1,49.8 73.1,45.8 29,45.8 29,49.8 73.1,49.8 73.1,45.8 29,45.8 	"/>
	<rect x="1" y="1" class="st1" width="72.1" height="44.8"/>
	<rect x="1" y="1" class="st1" width="72.1" height="44.8"/>
	<path class="st0" d="M42.5,51.1c0.5-0.1,1,0.3,1,0.8c0.1,0.5-0.2,0.9-0.7,1s-0.9-0.3-1-0.7C41.7,51.7,42,51.2,42.5,51.1"/>
	<path class="st0" d="M48.5,50.5c0.5-0.1,1,0.3,1,0.8c0.1,0.5-0.2,0.9-0.7,1s-0.9-0.3-1-0.7C47.7,51,48,50.6,48.5,50.5"/>
</g>
<rect x="0.6" y="0.9" class="st2" width="72.2" height="44.7"/>
</svg>
