<?xml version="1.0" encoding="utf-8"?>
<!-- Generator: Adobe Illustrator 21.0.0, SVG Export Plug-In . SVG Version: 6.00 Build 0)  -->
<svg version="1.1" id="图层_1" xmlns="http://www.w3.org/2000/svg" xmlns:xlink="http://www.w3.org/1999/xlink" x="0px" y="0px"
	 viewBox="0 0 46.6 72.2" style="enable-background:new 0 0 46.6 72.2;" xml:space="preserve">
<style type="text/css">
	.st0{fill:none;stroke:#FFFFFF;stroke-linecap:round;stroke-linejoin:round;stroke-miterlimit:10;}
</style>
<rect x="6.2" y="0.5" class="st0" width="39.9" height="71.2"/>
<rect x="9" y="32.4" class="st0" width="34.6" height="36.9"/>
<polygon class="st0" points="24.5,50.9 24.5,50.5 24.5,50.5 24.5,50.3 24.6,50.3 24.6,50.2 24.6,50.1 24.6,50 24.7,50 24.7,50 
	24.8,49.9 24.8,49.9 24.8,49.9 24.8,49.8 24.9,49.7 24.9,49.7 24.9,49.7 25,49.7 25,49.6 25.2,49.6 25.2,49.6 25.2,49.6 25.3,49.5 
	25.3,49.5 25.4,49.4 25.5,49.4 25.5,49.4 25.6,49.4 25.6,49.3 25.8,49.3 25.8,49.3 26.7,49.3 26.8,49.3 26.9,49.3 26.9,49.4 
	27,49.4 27.1,49.4 27.1,49.4 27.1,49.5 27.2,49.5 27.2,49.6 27.3,49.6 27.7,49.9 27.7,50 27.7,50 27.7,50.1 27.8,50.1 27.8,50.2 
	27.8,50.3 27.8,50.4 27.9,50.4 27.9,50.8 28.1,50.8 28.1,50.9 27.9,51 27.9,51.3 27.8,51.4 27.8,51.5 27.8,51.5 27.8,51.6 
	27.7,51.7 27.7,51.7 27.7,51.7 27.7,51.8 27.5,52 27.5,52 27.4,52 27.4,52.1 27.4,52.1 27.4,52.1 27.3,52.1 27.2,52.2 27.2,52.2 
	27.1,52.3 27.1,52.3 27.1,52.3 26.9,52.3 26.9,52.4 26.8,52.4 26.8,52.4 26.4,52.4 26.4,52.5 26,52.5 26,52.4 25.8,52.4 25.7,52.4 
	25.6,52.4 25.5,52.3 25.5,52.3 25.4,52.3 25.3,52.3 25.3,52.2 25.2,52.2 25.2,52.1 25.2,52.1 24.8,51.9 24.8,51.8 24.8,51.8 
	24.8,51.8 24.7,51.8 24.7,51.7 24.6,51.7 24.6,51.6 24.6,51.5 24.6,51.5 24.5,51.4 24.5,51.2 24.5,51.2 "/>
<polygon class="st0" points="24.5,11 24.5,10.7 24.5,10.6 24.5,10.5 24.6,10.4 24.6,10.3 24.6,10.3 24.6,10.3 24.7,10.2 24.7,10.1 
	24.8,10.1 24.8,10.1 24.8,10 24.8,10 24.9,10 25.2,9.8 25.2,9.8 25.2,9.7 25.3,9.7 25.3,9.7 25.4,9.7 25.4,9.6 25.5,9.6 25.6,9.5 
	25.6,9.5 25.7,9.5 25.9,9.5 25.9,9.4 26.4,9.4 26.5,9.5 26.8,9.5 26.8,9.5 26.9,9.5 26.9,9.6 27.1,9.6 27.1,9.7 27.2,9.7 27.2,9.7 
	27.2,9.7 27.3,9.8 27.4,9.8 27.4,9.8 27.4,9.8 27.4,9.9 27.5,9.9 27.5,10 27.5,10 27.5,10 27.6,10 27.6,10.1 27.7,10.1 27.7,10.2 
	27.7,10.2 27.7,10.3 27.8,10.3 27.8,10.4 27.8,10.4 27.8,10.6 27.9,10.6 27.9,10.9 28.1,11 28.1,11.2 27.9,11.2 27.9,11.5 
	27.8,11.5 27.8,11.6 27.8,11.7 27.8,11.8 27.7,11.8 27.7,11.9 27.7,11.9 27.7,12 27.6,12 27.6,12.1 27.5,12.1 27.5,12.1 27.5,12.1 
	27.5,12.2 27.4,12.3 27.3,12.3 27.3,12.4 27.2,12.4 27.2,12.4 27.1,12.4 27.1,12.5 27.1,12.5 27,12.5 26.9,12.5 26.9,12.6 
	26.7,12.6 26.5,12.7 25.8,12.7 25.8,12.6 25.6,12.6 25.6,12.5 25.5,12.5 25.5,12.5 25.4,12.5 25.3,12.4 25.3,12.4 25.2,12.3 
	25,12.3 25,12.2 24.9,12.2 24.9,12.2 24.9,12.2 24.9,12.1 24.8,12.1 24.8,12.1 24.7,11.9 24.7,11.9 24.6,11.9 24.6,11.8 24.6,11.8 
	24.6,11.6 24.5,11.6 24.5,11.5 24.5,11.4 "/>
<rect x="6.2" y="0.5" class="st0" width="39.9" height="71.2"/>
<polygon class="st0" points="46.1,71.7 46.1,0.5 6.2,0.5 6.2,71.7 46.1,71.7 46.1,0.5 6.2,0.5 6.2,71.7 "/>
<rect x="9" y="32.4" class="st0" width="34.6" height="36.9"/>
<polygon class="st0" points="43.6,69.3 43.6,32.4 9,32.4 9,69.3 43.6,69.3 43.6,32.4 9,32.4 9,69.3 "/>
<rect x="9" y="2.9" class="st0" width="34.6" height="27.1"/>
<polygon class="st0" points="2.2,31.6 3.2,30.8 17.4,43.8 16.4,44.6 "/>
<polygon class="st0" points="26.2,49.3 25.8,49.3 25.8,49.3 25.6,49.3 25.6,49.4 25.5,49.4 25.5,49.4 25.4,49.4 25.3,49.5 
	25.3,49.5 25.2,49.6 25.2,49.6 25.2,49.6 25,49.6 25,49.7 24.9,49.7 24.9,49.7 24.9,49.7 24.8,49.8 24.8,49.9 24.8,49.9 24.8,49.9 
	24.7,50 24.7,50 24.6,50 24.6,50.1 24.6,50.2 24.6,50.3 24.5,50.3 24.5,50.5 24.5,50.5 24.5,51.2 24.5,51.2 24.5,51.4 24.6,51.5 
	24.6,51.5 24.6,51.6 24.6,51.7 24.7,51.7 24.7,51.8 24.8,51.8 24.8,51.8 24.8,51.8 24.8,51.9 25.2,52.1 25.2,52.1 25.2,52.2 
	25.3,52.2 25.3,52.3 25.4,52.3 25.5,52.3 25.5,52.3 25.6,52.4 25.7,52.4 25.8,52.4 26,52.4 26,52.5 26.4,52.5 26.4,52.4 26.8,52.4 
	26.8,52.4 26.9,52.4 26.9,52.3 27.1,52.3 27.1,52.3 27.1,52.3 27.2,52.2 27.2,52.2 27.3,52.1 27.4,52.1 27.4,52.1 27.4,52.1 
	27.4,52 27.5,52 27.5,52 27.7,51.8 27.7,51.7 27.7,51.7 27.7,51.7 27.8,51.6 27.8,51.5 27.8,51.5 27.8,51.4 27.9,51.3 27.9,51 
	28.1,50.9 28.1,50.8 27.9,50.8 27.9,50.4 27.8,50.4 27.8,50.3 27.8,50.2 27.8,50.1 27.7,50.1 27.7,50 27.7,50 27.7,49.9 27.3,49.6 
	27.2,49.6 27.2,49.5 27.1,49.5 27.1,49.4 27.1,49.4 27,49.4 26.9,49.4 26.9,49.3 26.8,49.3 26.7,49.3 "/>
<polygon class="st0" points="26.2,9.4 25.9,9.4 25.9,9.5 25.7,9.5 25.6,9.5 25.6,9.5 25.5,9.6 25.4,9.6 25.4,9.7 25.3,9.7 25.3,9.7 
	25.2,9.7 25.2,9.8 25.2,9.8 24.9,10 24.8,10 24.8,10 24.8,10.1 24.8,10.1 24.7,10.1 24.7,10.2 24.6,10.3 24.6,10.3 24.6,10.3 
	24.6,10.4 24.5,10.5 24.5,10.6 24.5,10.7 24.5,11.4 24.5,11.5 24.5,11.6 24.6,11.6 24.6,11.8 24.6,11.8 24.6,11.9 24.7,11.9 
	24.7,11.9 24.8,12.1 24.8,12.1 24.9,12.1 24.9,12.2 24.9,12.2 24.9,12.2 25,12.2 25,12.3 25.2,12.3 25.3,12.4 25.3,12.4 25.4,12.5 
	25.5,12.5 25.5,12.5 25.6,12.5 25.6,12.6 25.8,12.6 25.8,12.7 26.5,12.7 26.7,12.6 26.9,12.6 26.9,12.5 27,12.5 27.1,12.5 
	27.1,12.5 27.1,12.4 27.2,12.4 27.2,12.4 27.3,12.4 27.3,12.3 27.4,12.3 27.5,12.2 27.5,12.1 27.5,12.1 27.5,12.1 27.6,12.1 
	27.6,12 27.7,12 27.7,11.9 27.7,11.9 27.7,11.8 27.8,11.8 27.8,11.7 27.8,11.6 27.8,11.5 27.9,11.5 27.9,11.2 28.1,11.2 28.1,11 
	27.9,10.9 27.9,10.6 27.8,10.6 27.8,10.4 27.8,10.4 27.8,10.3 27.7,10.3 27.7,10.2 27.7,10.2 27.7,10.1 27.6,10.1 27.6,10 27.5,10 
	27.5,10 27.5,10 27.5,9.9 27.4,9.9 27.4,9.8 27.4,9.8 27.4,9.8 27.3,9.8 27.2,9.7 27.2,9.7 27.2,9.7 27.1,9.7 27.1,9.6 26.9,9.6 
	26.9,9.5 26.8,9.5 26.8,9.5 26.5,9.5 26.4,9.4 "/>
<rect x="9" y="2.9" class="st0" width="34.6" height="27.1"/>
<polygon class="st0" points="2.2,31.6 3.2,30.8 17.4,43.8 16.4,44.6 "/>
<polyline class="st0" points="4.7,32.2 4.7,32 4.8,32 4.8,31.9 4.8,31.9 4.8,31.7 4.9,31.7 4.9,31.4 4.9,31.4 4.9,31 4.9,31 
	4.9,30.7 4.8,30.7 4.8,30.5 4.8,30.5 4.8,30.4 4.7,30.3 4.7,30.2 4.6,30.2 4.6,30.1 4.5,29.9 4.5,29.9 4.4,29.9 4.4,29.8 4.3,29.8 
	4.3,29.8 4.3,29.8 4.3,29.7 4.2,29.7 4.2,29.6 4.2,29.6 3.9,29.5 3.9,29.5 3.9,29.5 3.8,29.5 3.8,29.4 3.6,29.4 3.6,29.3 3.5,29.3 
	3.5,29.3 3.3,29.3 3.3,29.2 3.1,29.2 3,29.2 2.4,29.2 2.3,29.2 2.1,29.2 2.1,29.3 1.9,29.3 1.9,29.3 1.8,29.3 1.7,29.4 1.7,29.4 
	1.7,29.5 1.6,29.5 1.6,29.5 1.5,29.5 1.4,29.6 1.4,29.6 1.4,29.6 1.3,29.6 1.1,29.8 1.1,29.8 1,29.8 1,29.9 1,29.9 1,29.9 0.8,30.1 
	0.8,30.2 0.7,30.2 0.7,30.3 0.7,30.4 0.7,30.4 0.6,30.5 0.6,30.7 0.6,30.7 0.6,31 0.5,31 0.5,31.4 0.6,31.4 0.6,31.7 0.6,31.7 
	0.6,31.9 0.7,32 0.7,32 0.7,32.1 0.7,32.2 0.9,32.3 0.9,32.3 1,32.5 1,32.5 1,32.5 1,32.6 1.1,32.6 1.1,32.6 1.3,32.6 1.4,32.8 
	1.5,32.8 1.5,32.9 1.6,32.9 1.6,32.9 1.7,32.9 1.7,33 1.8,33 1.8,33.1 1.9,33.1 2,33.1 2.1,33.1 2.2,33.2 2.5,33.2 2.5,33.2 
	2.9,33.2 3,33.2 3.3,33.2 3.3,33.1 3.5,33.1 3.5,33.1 3.6,33.1 3.6,33 3.7,33 "/>
<polygon class="st0" points="24.5,50.9 24.5,50.8 24.5,50.8 24.5,50.7 24.5,50.6 24.5,50.6 24.5,50.5 24.5,50.5 24.5,50.4 
	24.5,50.3 24.5,50.3 24.6,50.3 24.6,50.2 24.6,50.2 24.6,50.1 24.6,50 24.7,50 24.7,50 24.8,49.9 24.8,49.9 24.8,49.9 24.8,49.8 
	24.9,49.7 24.9,49.7 24.9,49.7 25,49.7 25,49.6 25.2,49.6 25.2,49.6 25.2,49.6 25.3,49.5 25.3,49.5 25.4,49.4 25.5,49.4 25.5,49.4 
	25.5,49.4 25.6,49.4 25.6,49.3 25.6,49.3 25.7,49.3 25.8,49.3 25.8,49.3 25.8,49.3 25.9,49.3 25.9,49.3 26,49.3 26.1,49.3 
	26.1,49.3 26.2,49.3 26.2,49.3 26.3,49.3 26.4,49.3 26.4,49.3 26.5,49.3 26.5,49.3 26.7,49.3 26.8,49.3 26.8,49.3 26.9,49.3 
	26.9,49.4 27,49.4 27.1,49.4 27.1,49.4 27.1,49.5 27.2,49.5 27.2,49.6 27.3,49.6 27.4,49.6 27.4,49.7 27.5,49.7 27.5,49.8 
	27.6,49.9 27.7,49.9 27.7,50 27.7,50 27.7,50.1 27.8,50.1 27.8,50.2 27.8,50.2 27.8,50.3 27.8,50.3 27.8,50.4 27.9,50.4 27.9,50.5 
	27.9,50.5 27.9,50.6 27.9,50.6 27.9,50.7 27.9,50.8 28.1,50.8 28.1,50.8 28.1,50.9 28.1,50.9 27.9,51 27.9,51.1 27.9,51.1 
	27.9,51.2 27.9,51.2 27.9,51.3 27.8,51.4 27.8,51.4 27.8,51.5 27.8,51.5 27.8,51.5 27.8,51.6 27.7,51.7 27.7,51.7 27.7,51.7 
	27.7,51.8 27.6,51.8 27.5,51.9 27.5,52 27.5,52 27.4,52 27.4,52.1 27.4,52.1 27.4,52.1 27.3,52.1 27.2,52.2 27.2,52.2 27.1,52.3 
	27.1,52.3 27.1,52.3 27,52.3 26.9,52.3 26.9,52.4 26.9,52.4 26.8,52.4 26.8,52.4 26.8,52.4 26.7,52.4 26.5,52.4 26.5,52.4 
	26.4,52.4 26.4,52.5 26.3,52.5 26.2,52.5 26.2,52.5 26.1,52.5 26.1,52.5 26,52.5 26,52.4 25.9,52.4 25.9,52.4 25.8,52.4 25.8,52.4 
	25.7,52.4 25.6,52.4 25.6,52.4 25.5,52.3 25.5,52.3 25.4,52.3 25.3,52.3 25.3,52.2 25.2,52.2 25.2,52.1 25.2,52.1 25,52.1 24.9,52 
	24.9,52 24.8,51.9 24.8,51.8 24.8,51.8 24.8,51.8 24.7,51.8 24.7,51.7 24.6,51.7 24.6,51.6 24.6,51.5 24.6,51.5 24.5,51.4 
	24.5,51.4 24.5,51.3 24.5,51.2 24.5,51.2 24.5,51.2 24.5,51.1 24.5,51.1 24.5,51 "/>
<polygon class="st0" points="24.5,50.9 24.5,50.5 24.5,50.5 24.5,50.3 24.6,50.3 24.6,50.2 24.6,50.1 24.6,50 24.7,50 24.7,50 
	24.8,49.9 24.8,49.9 24.8,49.9 24.8,49.8 24.9,49.7 24.9,49.7 24.9,49.7 25,49.7 25,49.6 25.2,49.6 25.2,49.6 25.2,49.6 25.3,49.5 
	25.3,49.5 25.4,49.4 25.5,49.4 25.5,49.4 25.6,49.4 25.6,49.3 25.8,49.3 25.8,49.3 26.7,49.3 26.8,49.3 26.9,49.3 26.9,49.4 
	27,49.4 27.1,49.4 27.1,49.4 27.1,49.5 27.2,49.5 27.2,49.6 27.3,49.6 27.7,49.9 27.7,50 27.7,50 27.7,50.1 27.8,50.1 27.8,50.2 
	27.8,50.3 27.8,50.4 27.9,50.4 27.9,50.8 28.1,50.8 28.1,50.9 27.9,51 27.9,51.3 27.8,51.4 27.8,51.5 27.8,51.5 27.8,51.6 
	27.7,51.7 27.7,51.7 27.7,51.7 27.7,51.8 27.5,52 27.5,52 27.4,52 27.4,52.1 27.4,52.1 27.4,52.1 27.3,52.1 27.2,52.2 27.2,52.2 
	27.1,52.3 27.1,52.3 27.1,52.3 26.9,52.3 26.9,52.4 26.8,52.4 26.8,52.4 26.4,52.4 26.4,52.5 26,52.5 26,52.4 25.8,52.4 25.7,52.4 
	25.6,52.4 25.5,52.3 25.5,52.3 25.4,52.3 25.3,52.3 25.3,52.2 25.2,52.2 25.2,52.1 25.2,52.1 24.8,51.9 24.8,51.8 24.8,51.8 
	24.8,51.8 24.7,51.8 24.7,51.7 24.6,51.7 24.6,51.6 24.6,51.5 24.6,51.5 24.5,51.4 24.5,51.2 24.5,51.2 "/>
<polygon class="st0" points="24.5,11 24.5,11 24.5,10.9 24.5,10.9 24.5,10.8 24.5,10.7 24.5,10.7 24.5,10.6 24.5,10.6 24.5,10.5 
	24.6,10.4 24.6,10.4 24.6,10.3 24.6,10.3 24.6,10.3 24.7,10.2 24.7,10.1 24.8,10.1 24.8,10.1 24.8,10 24.8,10 24.9,10 24.9,9.9 
	25,9.8 25.2,9.8 25.2,9.8 25.2,9.7 25.3,9.7 25.3,9.7 25.3,9.7 25.4,9.7 25.4,9.6 25.5,9.6 25.5,9.6 25.6,9.5 25.6,9.5 25.7,9.5 
	25.8,9.5 25.8,9.5 25.9,9.5 25.9,9.4 26,9.4 26.1,9.4 26.1,9.4 26.2,9.4 26.2,9.4 26.3,9.4 26.4,9.4 26.4,9.4 26.5,9.5 26.5,9.5 
	26.7,9.5 26.8,9.5 26.8,9.5 26.9,9.5 26.9,9.5 26.9,9.6 27,9.6 27.1,9.6 27.1,9.7 27.2,9.7 27.2,9.7 27.2,9.7 27.3,9.8 27.4,9.8 
	27.4,9.8 27.4,9.8 27.4,9.9 27.5,9.9 27.5,10 27.5,10 27.5,10 27.6,10 27.6,10.1 27.7,10.1 27.7,10.2 27.7,10.2 27.7,10.3 
	27.8,10.3 27.8,10.4 27.8,10.4 27.8,10.4 27.8,10.5 27.8,10.6 27.9,10.6 27.9,10.7 27.9,10.7 27.9,10.8 27.9,10.9 27.9,10.9 
	28.1,11 28.1,11 28.1,11.1 28.1,11.2 27.9,11.2 27.9,11.2 27.9,11.3 27.9,11.3 27.9,11.4 27.9,11.5 27.9,11.5 27.8,11.5 27.8,11.6 
	27.8,11.6 27.8,11.7 27.8,11.8 27.7,11.8 27.7,11.9 27.7,11.9 27.7,12 27.6,12 27.6,12.1 27.5,12.1 27.5,12.1 27.5,12.1 27.5,12.2 
	27.4,12.2 27.4,12.3 27.3,12.3 27.3,12.4 27.2,12.4 27.2,12.4 27.1,12.4 27.1,12.5 27.1,12.5 27,12.5 26.9,12.5 26.9,12.5 
	26.9,12.6 26.8,12.6 26.8,12.6 26.7,12.6 26.5,12.7 26.5,12.7 26.4,12.7 26.4,12.7 26.3,12.7 26.2,12.7 26.2,12.7 26.1,12.7 
	26.1,12.7 26,12.7 25.9,12.7 25.9,12.7 25.8,12.7 25.8,12.6 25.7,12.6 25.6,12.6 25.6,12.5 25.5,12.5 25.5,12.5 25.5,12.5 
	25.4,12.5 25.3,12.4 25.3,12.4 25.2,12.4 25.2,12.3 25,12.3 25,12.2 24.9,12.2 24.9,12.2 24.9,12.2 24.9,12.1 24.8,12.1 24.8,12.1 
	24.8,12 24.7,11.9 24.7,11.9 24.6,11.9 24.6,11.8 24.6,11.8 24.6,11.8 24.6,11.7 24.6,11.6 24.5,11.6 24.5,11.5 24.5,11.5 
	24.5,11.4 24.5,11.3 24.5,11.3 24.5,11.2 24.5,11.2 24.5,11.1 "/>
<polygon class="st0" points="24.5,11 24.5,10.7 24.5,10.6 24.5,10.5 24.6,10.4 24.6,10.3 24.6,10.3 24.6,10.3 24.7,10.2 24.7,10.1 
	24.8,10.1 24.8,10.1 24.8,10 24.8,10 24.9,10 25.2,9.8 25.2,9.8 25.2,9.7 25.3,9.7 25.3,9.7 25.4,9.7 25.4,9.6 25.5,9.6 25.6,9.5 
	25.6,9.5 25.7,9.5 25.9,9.5 25.9,9.4 26.4,9.4 26.5,9.5 26.8,9.5 26.8,9.5 26.9,9.5 26.9,9.6 27.1,9.6 27.1,9.7 27.2,9.7 27.2,9.7 
	27.2,9.7 27.3,9.8 27.4,9.8 27.4,9.8 27.4,9.8 27.4,9.9 27.5,9.9 27.5,10 27.5,10 27.5,10 27.6,10 27.6,10.1 27.7,10.1 27.7,10.2 
	27.7,10.2 27.7,10.3 27.8,10.3 27.8,10.4 27.8,10.4 27.8,10.6 27.9,10.6 27.9,10.9 28.1,11 28.1,11.2 27.9,11.2 27.9,11.5 
	27.8,11.5 27.8,11.6 27.8,11.7 27.8,11.8 27.7,11.8 27.7,11.9 27.7,11.9 27.7,12 27.6,12 27.6,12.1 27.5,12.1 27.5,12.1 27.5,12.1 
	27.5,12.2 27.4,12.3 27.3,12.3 27.3,12.4 27.2,12.4 27.2,12.4 27.1,12.4 27.1,12.5 27.1,12.5 27,12.5 26.9,12.5 26.9,12.6 
	26.7,12.6 26.5,12.7 25.8,12.7 25.8,12.6 25.6,12.6 25.6,12.5 25.5,12.5 25.5,12.5 25.4,12.5 25.3,12.4 25.3,12.4 25.2,12.3 
	25,12.3 25,12.2 24.9,12.2 24.9,12.2 24.9,12.2 24.9,12.1 24.8,12.1 24.8,12.1 24.7,11.9 24.7,11.9 24.6,11.9 24.6,11.8 24.6,11.8 
	24.6,11.6 24.5,11.6 24.5,11.5 24.5,11.4 "/>
</svg>
