<?xml version="1.0" encoding="utf-8"?>
<!-- Generator: Adobe Illustrator 21.0.0, SVG Export Plug-In . SVG Version: 6.00 Build 0)  -->
<svg version="1.1" id="图层_1" xmlns="http://www.w3.org/2000/svg" xmlns:xlink="http://www.w3.org/1999/xlink" x="0px" y="0px"
	 viewBox="0 0 20.9 20.9" style="enable-background:new 0 0 20.9 20.9;" xml:space="preserve">
<style type="text/css">
	.st0{fill:#FF6A6A;}
	.st1{opacity:0.8;fill:none;stroke:#FFFFFF;stroke-width:0.5;stroke-miterlimit:10;}
	.st2{fill:none;stroke:#FFFFFF;stroke-width:0.5;stroke-miterlimit:10;}
</style>
<g>
	<path class="st0" d="M18.4,12.1c-0.3-1.8-1.9-2.8-4-2.6c-0.9,0.1-2.4,0.8-2.6,0.4c-0.3-1.6,1.6-2,3-2.1c1.8-0.1,2.5-1.2,1.6-2.7
		c-1-1.7-3.4-2.7-4.9-2.1C9.8,3.5,9.1,5.3,9.6,7.6C9.7,8.2,10.3,9,9.4,9.2C8.7,9.5,8.2,8.8,8,8.1C7.9,7.5,7.7,6.9,7.7,6.4
		c-0.2-2-1.3-2.5-3-1.4S2.2,8.3,3,9.8c1,1.9,2.7,2.1,4.6,1.7c0.6-0.1,1.4-0.7,1.7,0.3c0.2,0.7-0.6,1.1-1.2,1.3S7,13.4,6.4,13.4
		c-1.9,0.1-2.4,1.1-1.5,2.7c1,1.7,3.4,2.7,5,2c1.7-0.8,2.7-2.8,1.8-5.2c-0.1-0.4-0.6-1-0.1-1.2s0.9,0.2,1.1,0.5
		c0.6,0.8,0.8,1.7,0.7,2.7c-0.1,1.3,0.6,1.9,1.9,1.7C17,16.3,18.7,13.9,18.4,12.1L18.4,12.1z M10.5,11.2c-0.4,0-0.7-0.3-0.7-0.7
		s0.3-0.7,0.7-0.7s0.7,0.3,0.7,0.7C11.2,10.9,10.9,11.2,10.5,11.2z"/>
	
		<animateTransform  accumulate="none" additive="replace" attributeName="transform" attributeType="xml" calcMode="linear" dur="2s" fill="remove" from="360 10.5 10.5" repeatCount="indefinite" restart="always" to="0 10.5 10.5" type="rotate">
		</animateTransform>
</g>
<path class="st1" d="M0.8,10.4h19.5 M10.5,0.8L10.5,0.8c-5.4,0-9.8,4.4-9.8,9.7l0,0c0,5.4,4.4,9.7,9.7,9.7l0,0
	c5.4,0,9.7-4.4,9.7-9.7l0,0C20.3,5.2,15.9,0.8,10.5,0.8z M10.5,0.8v19.5 M3.6,17.4L17.4,3.6 M17.4,17.4L3.6,3.6 M1.5,14.3l18-7.5
	 M6.8,1.5l7.5,18 M6.8,19.5l7.5-18 M19.5,14.3l-18-7.5 M1,12.4l19.1-3.8 M12.4,20.1L8.6,1 M5.1,18.6L16,2.4 M18.6,15.9L2.4,5.1
	 M2.4,15.9L18.6,5.1 M16,18.6L5.1,2.4 M8.6,20.1L12.4,1 M20.1,12.4L1,8.6"/>
<path class="st2" d="M1.5,0.2h17.9c0.7,0,1.3,0.6,1.3,1.3v17.9c0,0.7-0.6,1.3-1.3,1.3H1.5c-0.7,0-1.3-0.6-1.3-1.3V1.5
	C0.2,0.8,0.8,0.2,1.5,0.2z"/>
</svg>
