<?xml version="1.0" encoding="utf-8"?>
<!-- Generator: Adobe Illustrator 21.0.0, SVG Export Plug-In . SVG Version: 6.00 Build 0)  -->
<svg version="1.1" id="图层_1" xmlns="http://www.w3.org/2000/svg" xmlns:xlink="http://www.w3.org/1999/xlink" x="0px" y="0px"
	 viewBox="0 0 337.7 337.7" style="enable-background:new 0 0 337.7 337.7;" xml:space="preserve">
<style type="text/css">
	.st0{fill:none;stroke:#FFFFFF;stroke-width:8;stroke-miterlimit:10;}
	.st1{fill:#00CCFF;}
</style>
<title>净化器开</title>
<path class="st0" d="M26.4,5.6h284.9c11.2,0,20.8,9.6,20.8,20.8v284.9c0,11.2-9.6,20.8-20.8,20.8H26.4c-11.2,0-20.8-9.6-20.8-20.8
	V26.4C5.6,15.2,15.2,5.6,26.4,5.6z"/>
<g>
	<path class="st1" d="M162.2,260.5v-221h13v220.9L162.2,260.5L162.2,260.5z M32.6,238.8l72.3-200.5l12.2,4.4L44.8,243.2L32.6,238.8
		L32.6,238.8z M233.8,216.6L188.4,42.1l12.6-3.3l45.5,174.5L233.8,216.6z M273.3,159.3L218.3,46l11.7-5.7l55,113.3L273.3,159.3
		L273.3,159.3z M95,257l43.5-216.6l12.7,2.6l-43.5,216.6L95,257L95,257z">
		<animate
    attributeName="fill"
    values="#FFFFFF;#00F5FF;#FFFFFF"
    dur="2s" 
	begin="0s"
    repeatCount="indefinite" />
		
		</path>
	<path class="st1" d="M203.9,299.4h-54.7v-13h49.2l93.7-96.9v-46.1h13v51.4L203.9,299.4z">

<animate
    attributeName="fill"
    values="#FFFFFF;#00F5FF;#FFFFFF"
    dur="2s" 
	begin="0s"
    repeatCount="indefinite" />
	
	</path>
</g>
<path class="st0" d="M40.8,22.1H297c10.1,0,18.7,8.6,18.7,18.7V297c0,10.1-8.6,18.7-18.7,18.7H40.8c-10.1,0-18.7-8.6-18.7-18.7V40.8
	C22.1,30.7,30.7,22.1,40.8,22.1z"/>
</svg>
