<?xml version="1.0" encoding="utf-8"?>
<!-- Generator: Adobe Illustrator 21.0.0, SVG Export Plug-In . SVG Version: 6.00 Build 0)  -->
<svg version="1.1" id="图层_1" xmlns="http://www.w3.org/2000/svg" xmlns:xlink="http://www.w3.org/1999/xlink" x="0px" y="0px"
	 viewBox="0 0 61.5 72.9" style="enable-background:new 0 0 61.5 72.9;" xml:space="preserve">
<style type="text/css">
	.st0{opacity:1;fill:#FF3333;}
	.st1{fill:none;stroke:#FFFFFF;stroke-width:3;stroke-miterlimit:10;}
	.st2{fill:none;stroke:#FFFFFF;stroke-width:2;stroke-miterlimit:10;}
	.st3{fill:#D8281D;}
	.st4{font-family:'YouYuan';}
	.st5{font-size:4.8489px;}
	.st6{fill:none;stroke:#FFFFFF;stroke-width:0.25;stroke-miterlimit:10;}
	.st7{fill:#7E8081;}
	.st8{font-size:1.6193px;}
	.st9{fill:none;stroke:#FFFFFF;stroke-width:0.1;stroke-miterlimit:10;}
	.st10{fill:none;stroke:#FFFFFF;stroke-width:0.5;stroke-miterlimit:10;}
</style>
<g>
<path class="st0" d="M44.6,72.4H16.9C7.9,72.4,0.5,65,0.5,56V16.9c0-9,7.4-16.4,16.4-16.4h27.7c9,0,16.4,7.4,16.4,16.4V56
	C61,65,53.6,72.4,44.6,72.4z"/>
<animate
    attributeType="CSS"
    attributeName="opacity"
    values="0.8;0;0.8" dur="2s" 
    repeatCount="indefinite" />
</g>	
	
	
	
<path class="st1" d="M44.6,72.4H16.9C7.9,72.4,0.5,65,0.5,56V16.9c0-9,7.4-16.4,16.4-16.4h27.7c9,0,16.4,7.4,16.4,16.4V56
	C61,65,53.7,72.4,44.6,72.4z"/>
<path class="st2" d="M41.7,17.1H19.8c-2,0-3.6-2-3.6-4.3l0,0c0-2.4,1.7-4.3,3.6-4.3h21.9c2,0,3.6,2,3.6,4.3l0,0
	C45.4,15.2,43.7,17.1,41.7,17.1z"/>
<path class="st2" d="M26.4,13.1h-4.6c-0.3,0-0.5-0.2-0.5-0.5l0,0c0-0.3,0.2-0.5,0.5-0.5h4.6c0.3,0,0.5,0.2,0.5,0.5l0,0
	C26.8,12.9,26.6,13.1,26.4,13.1z"/>
<path class="st2" d="M33.3,13.1h-4.6c-0.3,0-0.5-0.2-0.5-0.5l0,0c0-0.3,0.2-0.5,0.5-0.5h4.6c0.3,0,0.5,0.2,0.5,0.5l0,0
	C33.8,12.9,33.6,13.1,33.3,13.1z"/>
<path class="st2" d="M40.3,13.1h-4.6c-0.3,0-0.5-0.2-0.5-0.5l0,0c0-0.3,0.2-0.5,0.5-0.5h4.6c0.3,0,0.5,0.2,0.5,0.5l0,0
	C40.8,12.9,40.6,13.1,40.3,13.1z"/>
<circle class="st2" cx="30.5" cy="59.2" r="5.9"/>
<text transform="matrix(0.9301 0 0 1 25.9209 60.7768)" class="st3 st4 st5">开始</text>
<text transform="matrix(0.9301 0 0 1 25.9209 60.7768)" class="st6 st4 st5">开始</text>
<text transform="matrix(1.0139 0 0 1 46.4561 61.7982)" class="st7 st4 st8">选择</text>
<text transform="matrix(1.0139 0 0 1 46.4561 61.7982)" class="st9 st4 st8">选择</text>
<text transform="matrix(1.0139 0 0 1 46.4482 63.9896)" class="st7 st4 st8">取消</text>
<text transform="matrix(1.0139 0 0 1 46.4482 63.9896)" class="st9 st4 st8">取消</text>
<circle class="st10" cx="48.1" cy="62.4" r="2.8"/>
<text transform="matrix(1.0139 0 0 1 11.7744 62.9398)" class="st7 st4 st8">预约</text>
<text transform="matrix(1.0139 0 0 1 11.7744 62.9398)" class="st9 st4 st8">预约</text>
<circle class="st10" cx="13.5" cy="62.4" r="2.8"/>
</svg>
