<?xml version="1.0" encoding="utf-8"?>
<!-- Generator: Adobe Illustrator 21.0.0, SVG Export Plug-In . SVG Version: 6.00 Build 0)  -->
<svg version="1.1" id="图层_1" xmlns="http://www.w3.org/2000/svg" xmlns:xlink="http://www.w3.org/1999/xlink" x="0px" y="0px"
	 viewBox="0 0 61.5 72.9" style="enable-background:new 0 0 61.5 72.9;" xml:space="preserve">
<style type="text/css">
	.st0{opacity:1;fill:#FF3333;}
	.st1{opacity:1;}
	.st2{fill:#FF3333;}
	.st3{fill:#FFFFFF;stroke:#FFFFFF;stroke-width:2;stroke-miterlimit:10;}
	.st4{fill:none;stroke:#FFFFFF;stroke-width:2;stroke-miterlimit:10;}
</style>
<g>
	<circle class="st0" cx="28.4" cy="36.5" r="23.7"/>
	<g class="st1">
		<path class="st2" d="M51.6,32.7c2.8,0,5.6,0,8.4,0c0.1,0,0.2,0.1,0.2,0.2c0.6,2.2,0.6,4.7,0,6.9c0,0.1-0.1,0.2-0.2,0.2
			c-2.8,0-5.6,0-8.4,0c-0.1,0-0.2-0.1-0.1-0.2c0.6-2.2,0.6-4.7,0-6.9C51.5,32.8,51.5,32.7,51.6,32.7z"/>
	</g>
	<polygon class="st0" points="0.8,36.4 5.7,28.8 5.7,44 	"/>
	
	<animate
    attributeType="CSS"
    attributeName="opacity"
    values="0.8;0;0.8" dur="2s" 
    repeatCount="indefinite" />
	
	
	
</g>
<g>
	<polygon class="st3" points="7.2,27.3 6.6,27 0.6,36.4 0.6,36.4 0.6,36.4 6.6,45.8 7.2,45.5 1.5,36.4 	"/>
	<circle class="st4" cx="28.8" cy="36.4" r="18.8"/>
	<g>
		<path class="st4" d="M47.4,32.8c4.3,0,8.5,0,12.8,0c0.1,0,0.2,0.1,0.3,0.2c0.6,2.2,0.6,4.6,0,6.8c0,0.1-0.2,0.2-0.3,0.2
			c-4.3,0-8.5,0-12.8,0c-0.1,0-0.2-0.1-0.2-0.2c0.6-2.2,0.6-4.6,0-6.8C47.3,32.9,47.3,32.8,47.4,32.8z"/>
	</g>
	<path class="st4" d="M52.4,36.4"/>
	<path class="st4" d="M52.3,40c-1.7,11.4-11.5,20.1-23.4,20.1c-13.1,0-23.7-10.6-23.7-23.7s10.6-23.7,23.7-23.7
		c11.8,0,21.6,8.7,23.4,20"/>
	<path class="st4" d="M28.8,42.7L28.8,42.7c-3.5,0-6.3-2.8-6.3-6.3l0,0c0-3.5,2.8-6.3,6.3-6.3l0,0c3.5,0,6.3,2.8,6.3,6.3l0,0
		C35.1,39.9,32.3,42.7,28.8,42.7z"/>
</g>
</svg>
