<?xml version="1.0" encoding="utf-8"?>
<!-- Generator: Adobe Illustrator 21.0.0, SVG Export Plug-In . SVG Version: 6.00 Build 0)  -->
<svg version="1.1" id="图层_1" xmlns="http://www.w3.org/2000/svg" xmlns:xlink="http://www.w3.org/1999/xlink" x="0px" y="0px"
	 viewBox="0 0 61.5 72.9" style="enable-background:new 0 0 61.5 72.9;" xml:space="preserve">
<style type="text/css">
	.st0{fill:none;stroke:#FFFFFF;stroke-width:1.5;stroke-miterlimit:10;}
	.st1{fill:#FFFFFF;}
</style>
<g>
	<path class="st0" d="M57.4,60.7C54.6,64,50.5,66,46,66H15.6c-4.6,0-8.7-2-11.5-5.3H2.7c2.6,4.4,7.4,7.3,12.9,7.3h11.3v4.1h7.8V68
		H46c5.5,0,10.3-2.9,12.9-7.3H57.4z"/>
	<path class="st0" d="M6.3,58H2.5v2.7h0.2l0,0h1.5C6.9,64,11,66,15.5,66h30.3c4.5,0,8.6-2.1,11.4-5.3h1.5l0,0h0.2V58H55"/>
	<path class="st0" d="M46,61.1H15.6c-8.3,0-15-6.8-15-15V15.7c0-8.3,6.8-15,15-15H46c8.3,0,15,6.8,15,15v30.4
		C61,54.4,54.2,61.1,46,61.1z"/>
	<path class="st0" d="M46,0.7H15.6c-8.3,0-15,6.8-15,15v30.4c0,8.3,6.8,15,15,15H46c8.3,0,15-6.8,15-15V15.7C61,7.4,54.2,0.7,46,0.7
		z M59.1,45.1c0,7.7-6.3,14.1-14.1,14.1H16.5c-7.7,0-14.1-6.3-14.1-14.1V16.7C2.4,9,8.7,2.6,16.5,2.6H45c7.7,0,14.1,6.3,14.1,14.1
		V45.1L59.1,45.1z"/>
	<g>
		<path class="st1" d="M28.8,48c0.1,0,0.2,0.1,0.4,0.1c0.4,0.2,0.9,0.4,1.3,0.6c0.2,0.1,0.4,0.1,0.7,0c0.5-0.2,1-0.4,1.4-0.6
			c0.1,0,0.2-0.1,0.3,0c0,0.3,0,0.6,0,0.9c0.4-0.2,0.7-0.3,1.1-0.5c0.1,0,0.1-0.1,0.1-0.2c0-0.6,0-1.1,0-1.7c-0.3,0-0.5,0-0.7,0
			c-0.3,0-0.6,0-1,0.2C32,47,31.5,47.2,31,47.4c-0.2,0.1-0.3,0.1-0.5,0c-0.3-0.2-0.7-0.3-1-0.5c-0.5-0.3-1.1-0.4-1.7-0.3l0,0
			c-0.3,0-0.3,0-0.3,0.3c0,1.3,0,2.5,0,3.8c0,0.2,0,0.3,0.1,0.5c0.3-0.1,0.6-0.3,0.9-0.4c0.2-0.1,0.3-0.2,0.3-0.4c0-0.7,0-1.4,0-2.1
			C28.7,48.2,28.7,48.1,28.8,48z"/>
		<path class="st1" d="M34.1,49.3c-0.4,0.2-0.7,0.3-1.1,0.5c-0.2,0.1-0.2,0.2-0.2,0.3c0,0.3,0,0.6,0,0.9c-0.1,0.9-0.6,1.5-1.5,1.7
			c-0.8,0.2-1.6,0-2.1-0.6c-0.1-0.1-0.2-0.4-0.4-0.4c-0.2,0-0.4,0.1-0.6,0.2c-0.1,0-0.1,0.1-0.2,0.1c-0.3,0.1-0.3,0.1-0.1,0.4
			c0.6,1.2,2,1.9,3.3,1.7c1.4-0.2,2.5-1.2,2.8-2.6C34.1,50.7,34.1,50.1,34.1,49.3z"/>
		<path class="st1" d="M28.8,48c-0.1,0.1,0,0.2,0,0.4c0,0.7,0,1.4,0,2.1c0,0.2-0.1,0.3-0.3,0.4c-0.3,0.1-0.6,0.2-0.9,0.4
			c-0.1-0.2-0.1-0.3-0.1-0.5c0-1.3,0-2.5,0-3.8c0-0.3,0-0.3,0.3-0.3l0,0c0.6-0.1,1.2,0.1,1.7,0.3c0.3,0.2,0.7,0.3,1,0.5
			c0.2,0.1,0.3,0.1,0.5,0c0.5-0.2,0.9-0.4,1.4-0.6c0.3-0.1,0.6-0.2,1-0.2c0.2,0,0.5,0,0.7,0c0,0.6,0,1.2,0,1.7c0,0.1,0,0.2-0.1,0.2
			c-0.3,0.1-0.7,0.3-1.1,0.5c0-0.3,0-0.6,0-0.9c-0.1-0.1-0.2,0-0.3,0c-0.5,0.2-1,0.4-1.4,0.6c-0.2,0.1-0.4,0.1-0.7,0
			c-0.4-0.2-0.9-0.4-1.3-0.6C29,48,28.9,48,28.8,48z"/>
		<path class="st1" d="M34.1,49.3c0,0.7,0.1,1.4-0.1,2.1c-0.3,1.3-1.4,2.4-2.8,2.6c-1.3,0.2-2.7-0.5-3.3-1.7
			C27.7,52,27.7,52,28,51.9c0.1,0,0.1-0.1,0.2-0.1c0.2-0.1,0.4-0.2,0.6-0.2s0.2,0.3,0.4,0.4c0.6,0.6,1.3,0.9,2.1,0.6
			c0.8-0.2,1.3-0.8,1.5-1.7c0-0.3,0-0.6,0-0.9c0-0.1,0-0.2,0.2-0.3C33.3,49.6,33.7,49.5,34.1,49.3z"/>
	</g>
</g>
</svg>
