<?xml version="1.0" encoding="utf-8"?>
<!-- Generator: Adobe Illustrator 21.0.0, SVG Export Plug-In . SVG Version: 6.00 Build 0)  -->
<svg version="1.1" id="图层_1" xmlns="http://www.w3.org/2000/svg" xmlns:xlink="http://www.w3.org/1999/xlink" x="0px" y="0px"
	 viewBox="0 0 61.5 72.9" style="enable-background:new 0 0 61.5 72.9;" xml:space="preserve">
<style type="text/css">
	.st0{opacity:1;fill:#FF3333;}
	.st1{opacity:1;}
	.st2{fill:#FF3333;}
	.st3{fill:none;stroke:#FFFFFF;stroke-width:2;stroke-miterlimit:10;}
</style>
<g>
	<circle class="st0" cx="30.7" cy="36.5" r="23.5"/>
	<g class="st1">
		<path class="st2" d="M56.9,43.2c-0.8,0-1.7,0-2.5,0c-0.6,0-0.8-0.5-0.6-1c1.5-3.6,1.5-7.7,0-11.3c-0.2-0.6,0-1,0.6-1
			c0.8,0,1.7,0,2.5,0c0.6,0,1.3,0.5,1.6,1c1.5,3.6,1.5,7.7,0,11.3C58.2,42.8,57.5,43.2,56.9,43.2z"/>
	</g>
	<g class="st1">
		<path class="st2" d="M7.1,43.3c-0.8,0-1.7,0-2.5,0c-0.6,0-1.3-0.5-1.6-1C1.5,38.6,1.5,34.6,3,31c0.2-0.6,1-1,1.6-1
			c0.8,0,1.7,0,2.5,0c0.6,0,0.8,0.5,0.6,1c-1.5,3.6-1.5,7.7,0,11.3C7.9,42.8,7.7,43.3,7.1,43.3z"/>
	</g>
	
	<animate
    attributeType="CSS"
    attributeName="opacity"
    values="0.8;0;0.8" dur="2s" 
    repeatCount="indefinite" />
	
	
	
</g>
<g>
	<circle class="st3" cx="30.8" cy="36.4" r="23.5"/>
	<path class="st3" d="M30.8,44.3L30.8,44.3c-4.3,0-7.9-3.5-7.9-7.9l0,0c0-4.3,3.5-7.9,7.9-7.9l0,0c4.3,0,7.9,3.5,7.9,7.9l0,0
		C38.6,40.8,35.1,44.3,30.8,44.3z"/>
	<path class="st3" d="M30.8,41.4L30.8,41.4c-2.7,0-5-2.2-5-5l0,0c0-2.7,2.2-5,5-5l0,0c2.7,0,5,2.2,5,5l0,0
		C35.7,39.2,33.5,41.4,30.8,41.4z"/>
	<g>
		<path class="st3" d="M7.3,43.1c-0.8,0-1.7,0-2.5,0c-0.6,0-1.3-0.5-1.6-1c-1.5-3.6-1.5-7.7,0-11.3c0.2-0.6,1-1,1.6-1
			c0.8,0,1.7,0,2.5,0c0.6,0,0.8,0.5,0.6,1c-1.5,3.6-1.5,7.7,0,11.3C8.2,42.7,7.9,43.1,7.3,43.1z"/>
	</g>
	<g>
		<path class="st3" d="M56.7,43.1c-0.8,0-1.7,0-2.5,0c-0.6,0-0.8-0.5-0.6-1c1.5-3.6,1.5-7.7,0-11.3c-0.2-0.6,0-1,0.6-1
			c0.8,0,1.7,0,2.5,0c0.6,0,1.3,0.5,1.6,1c1.5,3.6,1.5,7.7,0,11.3C58,42.7,57.3,43.1,56.7,43.1z"/>
	</g>
</g>
</svg>
