<?xml version="1.0" encoding="utf-8"?>
<!-- Generator: Adobe Illustrator 21.0.0, SVG Export Plug-In . SVG Version: 6.00 Build 0)  -->
<svg version="1.1" id="图层_1" xmlns="http://www.w3.org/2000/svg" xmlns:xlink="http://www.w3.org/1999/xlink" x="0px" y="0px"
	 viewBox="0 0 20.9 20.9" style="enable-background:new 0 0 20.9 20.9;" xml:space="preserve">
<style type="text/css">
	.st0{fill:none;stroke:#FFFFFF;stroke-width:0.5;stroke-miterlimit:10;}
	.st1{opacity:0.8;fill:none;stroke:#FFFFFF;stroke-width:3;stroke-miterlimit:10;enable-background:new    ;}
</style>
<path class="st0" d="M10.5,0.7L10.5,0.7c-5.4,0-9.8,4.4-9.8,9.7l0,0c0,5.4,4.4,9.7,9.7,9.7l0,0c5.4,0,9.7-4.4,9.7-9.7l0,0
	C20.3,5.1,15.9,0.7,10.5,0.7z"/>
<path class="st0" d="M1.5,0.3h17.8c0.7,0,1.3,0.6,1.3,1.3v17.8c0,0.7-0.6,1.3-1.3,1.3H1.5c-0.7,0-1.3-0.6-1.3-1.3V1.5
	C0.2,0.8,0.8,0.3,1.5,0.3z"/>
<circle class="st1" cx="10.4" cy="10.4" r="7.5">
</circle>
</svg>
