<?xml version="1.0" standalone="no"?><!DOCTYPE svg PUBLIC "-//W3C//DTD SVG 1.1//EN" "http://www.w3.org/Graphics/SVG/1.1/DTD/svg11.dtd"><svg t="1726820479597" class="icon" viewBox="0 0 1024 1024" version="1.1" xmlns="http://www.w3.org/2000/svg" p-id="17206" xmlns:xlink="http://www.w3.org/1999/xlink" width="200" height="200">
<animate
             attributeType="CSS"
             attributeName="opacity"
             values="1;0;1" dur="1s" 
             repeatCount="indefinite" />
<path d="M863.982933 463.803733s-135.099733 29.149867-172.509866 39.253334c-37.000533 10.24-82.875733-63.419733-95.232-66.082134-7.850667 23.074133-33.314133 90.794667-48.469334 136.738134 23.483733-0.682667 145.6128 36.727467 150.050134 58.504533 5.051733 22.050133 62.122667 260.9152 62.122666 260.9152s24.1664 51.336533-44.4416 70.109867c-68.744533 18.773333-71.816533-38.365867-71.816533-38.365867s-47.991467-183.227733-52.224-194.286933c-3.959467-11.0592-93.457067-29.627733-113.8688-24.029867-20.6848 5.666133-64.853333 162.065067-108.475733 172.714667-55.978667 13.653333-220.16-87.108267-220.16-87.108267s-64.853333-16.1792-51.6096-77.687467c13.5168-61.0304 76.458667-44.373333 76.458666-44.373333s116.189867 64.580267 129.570134 57.002667c13.653333-7.714133 21.2992-52.224 41.096533-95.4368 0.8192-16.315733 46.421333-145.8176 46.421333-145.8176s25.258667-86.152533 15.223467-91.613867c-13.789867-7.3728-28.330667 8.465067-35.908267 21.640533-7.5776 13.1072-37.751467 66.9696-88.200533 137.216a53.111467 53.111467 0 0 1-91.477333-53.930666c27.579733-48.605867 101.034667-187.528533 153.941333-213.674667 53.248-26.4192 145.066667-41.028267 223.232-22.528 78.4384 18.090667 133.461333 107.997867 148.821333 119.876267 15.018667 11.400533 120.832-23.210667 120.832-23.210667s60.2112-21.0944 75.093334 34.474667c15.018667 55.9104-48.469333 69.700267-48.469334 69.700266zM621.909333 250.811733a106.018133 106.018133 0 0 1-130.8672-74.888533A107.178667 107.178667 0 0 1 647.509333 55.022933a106.973867 106.973867 0 0 1-25.6 195.7888z" fill="#FFFFFF" p-id="17207"></path></svg>