<?xml version="1.0" encoding="utf-8"?>
<!-- Generator: Adobe Illustrator 21.0.0, SVG Export Plug-In . SVG Version: 6.00 Build 0)  -->
<svg version="1.1" id="图层_1" xmlns="http://www.w3.org/2000/svg" xmlns:xlink="http://www.w3.org/1999/xlink" x="0px" y="0px"
	 viewBox="0 0 318.5 318.5" style="enable-background:new 0 0 318.5 318.5;" xml:space="preserve">
<style type="text/css">
	.st0{fill:none;stroke:#FFFFFF;stroke-width:7;stroke-miterlimit:10;}
	.st1{fill:#FF0000;}
	.st2{fill:none;stroke:#FFFFFF;stroke-width:8;stroke-miterlimit:10;}
</style>
<circle class="st0" cx="159.3" cy="159.3" r="145.7"/>
<title>净化器开</title>
<path class="st1" d="M172.9,127.7c-7.6,2.4-15.6,4-23.2,5.6c-5.2,1.2-10.4,2-15.6,3.6c-6.4,2-12,5.6-16,11.2
	c-10,14.4-6.8,34.8,7.6,45.2c10,7.2,20.8,8.4,32,4c5.6-2,10.4-5.6,13.6-10.8c2.8-4,4.8-8,6.4-12.4c5.2-12,8.8-24.8,11.6-37.6
	c1.2-4.8,2-9.6,2.8-14.4v-2.8c-0.4,0-0.8,0.4-0.8,0.4C185.3,123.3,179.3,125.7,172.9,127.7L172.9,127.7z"/>
<g>
	<path class="st1" d="M307.2,147l-42.8-46.8l-29,59.9l24.1-4.2v4.4c-0.5,55.2-45.7,100.1-101.5,99.6c-55.2-0.5-99.6-46.3-99.1-101.5
		s45.8-100.1,101.5-99.6c37.7,0.3,70.3,21.4,87.5,52.7l12.8-26.7C238,54.5,201.6,34,160.6,33.6C91.2,33,34.4,88.8,33.8,158.2
		S88.9,284.4,158.3,285s126.2-55.1,126.8-124.5c0-3.3,0.1-6-0.5-9.3L307.2,147z"/>
	
		<animateTransform  accumulate="none" additive="replace" attributeName="transform" attributeType="xml" calcMode="linear" dur="2s" fill="remove" from="360 159.25 159.25" repeatCount="indefinite" restart="always" to="0 159.25 159.25" type="rotate">
		</animateTransform>
</g>
<path class="st2" d="M23.8,4h270.9c10.7,0,19.8,9.1,19.8,19.8v270.9c0,10.7-9.1,19.8-19.8,19.8H23.8c-10.7,0-19.8-9.1-19.8-19.8
	V23.8C4,13.1,13.1,4,23.8,4z"/>
</svg>
