<?xml version="1.0" encoding="utf-8"?>
<!-- Generator: Adobe Illustrator 21.0.0, SVG Export Plug-In . SVG Version: 6.00 Build 0)  -->
<svg version="1.1" id="图层_1" xmlns="http://www.w3.org/2000/svg" xmlns:xlink="http://www.w3.org/1999/xlink" x="0px" y="0px"
	 viewBox="0 0 41.7 21.1" style="enable-background:new 0 0 41.7 21.1;" xml:space="preserve">
<style type="text/css">
	.st0{opacity:1;fill:none;stroke:#FFFFFF;stroke-width:0.5;stroke-miterlimit:10;enable-background:new    ;}
	.st1{opacity:1;fill:#00CC00;enable-background:new    ;}
	.st2{opacity:1;fill:#0099FF;enable-background:new    ;}
	.st3{opacity:1;}
</style>
<path class="st0" d="M0.6,0.3h40.4c0.2,0,0.4,0.2,0.4,0.4v19.8c0,0.2-0.2,0.4-0.4,0.4H0.6c-0.2,0-0.4-0.2-0.4-0.4V0.6
	C0.3,0.5,0.5,0.3,0.6,0.3z"/>
<g>
	<circle class="st1" cx="35.8" cy="10.5" r="0.9"/>
	<path class="st1" d="M36.6,8.9c0.2,0.1,0.5,0.3,0.6,0.6c0,0,2.2-2.1,3.1-2.2c0.8,0-1.2-1.5-2-1.9c-2.8-1.4-2.6,3.3-2.6,3.3
		C36,8.8,36.3,8.8,36.6,8.9L36.6,8.9z"/>
	<path class="st1" d="M37.5,10.4c0,0.3,0,0.5-0.1,0.8c-0.2,0.3-0.4,0.5-0.7,0.7c0,0,2.2,2.2,2.2,3.1c0,0.8,1.5-1.1,1.9-2
		C42.2,10.3,37.5,10.4,37.5,10.4L37.5,10.4z"/>
	<path class="st1" d="M35.1,12c-0.3-0.2-0.5-0.4-0.7-0.7c0,0-2.2,2.1-3.1,2.2c-0.8,0,1.1,1.5,2,1.9c2.7,1.5,2.6-3.3,2.6-3.3
		C35.6,12.3,35.3,12.1,35.1,12L35.1,12z"/>
	<path class="st1" d="M34.2,10.5c0-0.3,0-0.5,0.1-0.8s0.4-0.5,0.6-0.7c0,0-2.1-2.2-2.2-3c0-0.8-1.5,1.1-1.9,2
		C29.4,10.8,34.2,10.5,34.2,10.5L34.2,10.5z"/>
	
		<animateTransform  accumulate="none" additive="replace" attributeName="transform" attributeType="xml" calcMode="linear" dur="2s" fill="remove" from="360 35.8 10.5" repeatCount="indefinite" restart="always" to="0 35.8 10.5" type="rotate">
		</animateTransform>
</g>
<g>
	<circle class="st2" cx="6.1" cy="10.5" r="0.9"/>
	<path class="st2" d="M6.8,8.9C7,9.1,7.3,9.3,7.4,9.6c0,0,2.2-2.1,3.1-2.2c0.8,0-1.2-1.5-2-1.9C5.8,4.1,6,8.8,6,8.8
		C6.3,8.8,6.6,8.8,6.8,8.9L6.8,8.9z"/>
	<path class="st2" d="M7.8,10.4c0,0.3,0,0.5-0.1,0.8c-0.2,0.3-0.4,0.5-0.7,0.7c0,0,2.2,2.2,2.2,3.1c0,0.8,1.5-1.1,1.9-2
		C12.4,10.3,7.8,10.4,7.8,10.4L7.8,10.4z"/>
	<path class="st2" d="M5.3,12c-0.3-0.2-0.5-0.4-0.7-0.7c0,0-2.2,2.1-3.1,2.2c-0.8,0,1.1,1.5,2,1.9c2.7,1.5,2.6-3.3,2.6-3.3
		C5.8,12.3,5.6,12.1,5.3,12L5.3,12z"/>
	<path class="st2" d="M4.5,10.5c0-0.3,0-0.5,0.1-0.8S5,9.3,5.2,9c0,0-2.1-2.2-2.2-3C3,5.2,1.4,7.1,1,8C-0.3,10.8,4.5,10.5,4.5,10.5
		L4.5,10.5z"/>
	
		<animateTransform  accumulate="none" additive="replace" attributeName="transform" attributeType="xml" calcMode="linear" dur="2s" fill="remove" from="360 6.1 10.5" repeatCount="indefinite" restart="always" to="0 6.1 10.5" type="rotate">
		</animateTransform>
</g>
<g class="st3">
	<line class="st0" x1="11.8" y1="20.9" x2="11.8" y2="0.2"/>
	<line class="st0" x1="10.5" y1="20.9" x2="10.5" y2="0.2"/>
	<line class="st0" x1="9.3" y1="20.9" x2="9.3" y2="0.2"/>
	<line class="st0" x1="8" y1="20.9" x2="8" y2="0.2"/>
	<line class="st0" x1="6.7" y1="20.9" x2="6.7" y2="0.2"/>
	<line class="st0" x1="5.3" y1="20.9" x2="5.3" y2="0.2"/>
	<line class="st0" x1="4.1" y1="20.9" x2="4.1" y2="0.2"/>
	<line class="st0" x1="2.8" y1="20.9" x2="2.8" y2="0.2"/>
	<line class="st0" x1="1.4" y1="20.9" x2="1.4" y2="0.2"/>
</g>
<g class="st3">
	<line class="st0" x1="40.3" y1="20.9" x2="40.3" y2="0.2"/>
	<line class="st0" x1="39" y1="20.9" x2="39" y2="0.2"/>
	<line class="st0" x1="37.7" y1="20.9" x2="37.7" y2="0.2"/>
	<line class="st0" x1="36.4" y1="20.9" x2="36.4" y2="0.2"/>
	<line class="st0" x1="35.1" y1="20.9" x2="35.1" y2="0.2"/>
	<line class="st0" x1="33.8" y1="20.9" x2="33.8" y2="0.2"/>
	<line class="st0" x1="32.5" y1="20.9" x2="32.5" y2="0.2"/>
	<line class="st0" x1="31.1" y1="20.9" x2="31.1" y2="0.2"/>
	<line class="st0" x1="29.9" y1="20.9" x2="29.9" y2="0.2"/>
</g>
</svg>
