<?xml version="1.0" encoding="utf-8"?>
<!-- Generator: Adobe Illustrator 21.0.0, SVG Export Plug-In . SVG Version: 6.00 Build 0)  -->
<svg version="1.1" id="图层_1" xmlns="http://www.w3.org/2000/svg" xmlns:xlink="http://www.w3.org/1999/xlink" x="0px" y="0px"
	 viewBox="0 0 60.4 62.3" style="enable-background:new 0 0 60.4 62.3;" xml:space="preserve">
<style type="text/css">
	.st0{opacity:0.5;}
	.st1{fill:none;}
	.st2{fill:#FFFFFF;}
	.st3{fill:none;stroke:#FFFFFF;stroke-linecap:round;stroke-linejoin:round;stroke-miterlimit:10;}
	.st4{fill:none;stroke:#FFFFFF;stroke-width:0.5;stroke-miterlimit:10;}
	.st5{fill:none;stroke:#FFFFFF;stroke-miterlimit:10;}
	.st6{fill:none;stroke:#FFFFFF;stroke-width:0.25;stroke-miterlimit:10;}
	.st7{opacity:0.2;fill:#FFFFFF;enable-background:new    ;}
	.st8{opacity:0.2;fill:#FFFFFF;stroke:#FFFFFF;stroke-width:0.5;stroke-miterlimit:10;enable-background:new    ;}
	.st9{opacity:0.5;fill:#FFFFFF;enable-background:new    ;}
</style>
<g class="st0">
	<g>
		<g>
			<g>
				<g>
					<g>
						<path class="st1" d="M65.9,53.5l-0.2-3.9l-0.1-1.9c0-0.6-0.2-1.3-0.3-1.9L64.8,42c-0.2-1.3-0.6-2.5-0.9-3.8L49.4,42
							c0.2,0.9,0.5,1.9,0.7,2.8l0.4,2.9c0.1,0.5,0.2,0.9,0.2,1.4l0.1,1.4l0.2,2.9L65.9,53.5z"/>
					</g>
					<path class="st2" d="M56.9,43.7l1.5-0.3c-0.1-0.8-0.4-1.7-0.6-2.5l-1.5,0.4C56.6,42.1,56.8,42.9,56.9,43.7z"/>
					<polygon class="st2" points="57.6,48.1 59.1,47.9 58.7,45.4 57.2,45.7 					"/>
					<polygon class="st2" points="57.8,52.5 59.3,52.5 59.2,50 57.7,50.1 					"/>
				</g>
			</g>
			<g>
				<g>
					<g>
						<path class="st1" d="M63.9,38.3c-0.5-2.5-1.6-4.9-2.4-7.3c-0.5-1.2-1.1-2.3-1.6-3.5c-0.6-1.2-1.1-2.3-1.8-3.4l-13,7.5
							c0.5,0.8,0.9,1.7,1.3,2.5c0.4,0.9,0.9,1.7,1.2,2.6c0.6,1.8,1.4,3.6,1.8,5.5L63.9,38.3z"/>
					</g>
					<path class="st2" d="M52.7,31.1l1.3-0.7c-0.4-0.8-0.7-1.5-1.1-2.3l-1.3,0.7C52,29.6,52.3,30.3,52.7,31.1z"/>
					<path class="st2" d="M54.5,35.2l1.4-0.5c-0.3-0.8-0.5-1.6-1-2.4l-1.4,0.6C53.9,33.6,54.2,34.4,54.5,35.2z"/>
					<path class="st2" d="M55.9,39.4l1.4-0.4c-0.1-0.4-0.2-0.8-0.3-1.2l-0.4-1.2L55.1,37l0.4,1.2C55.7,38.6,55.8,39,55.9,39.4z"/>
				</g>
			</g>
			<g>
				<g>
					<g>
						<path class="st1" d="M58.1,24l-2-3.3c-0.7-1.1-1.5-2.1-2.3-3.1l-1.2-1.5c-0.4-0.5-0.9-1-1.3-1.4l-2.6-2.9L38.1,22.3l1.9,2.1
							c0.3,0.4,0.7,0.7,1,1.1l0.9,1.2c0.6,0.8,1.2,1.5,1.7,2.3l1.5,2.5L58.1,24z"/>
					</g>
					<polygon class="st2" points="45.4,20 46.5,19 44.8,17.1 43.7,18.1 					"/>
					<polygon class="st2" points="48.1,23.5 49.3,22.6 47.8,20.5 46.6,21.5 					"/>
					<polygon class="st2" points="50.6,27.2 51.8,26.4 50.5,24.2 49.3,25 					"/>
				</g>
			</g>
			<g>
				<g>
					<g>
						<path class="st1" d="M48.7,11.7l-2.8-2.6l-1.4-1.3L43,6.6c-1-0.8-2.1-1.6-3.1-2.3l-3.3-2l-7.5,13l2.5,1.5
							c0.8,0.6,1.5,1.2,2.3,1.7l1.2,0.9l1.1,1l2.1,1.9L48.7,11.7z"/>
					</g>
					<polygon class="st2" points="35.4,11.1 36.3,9.8 34.1,8.5 33.3,9.8 					"/>
					<polygon class="st2" points="39,13.8 39.9,12.6 37.9,11.1 37,12.3 					"/>
					<polygon class="st2" points="42.3,16.7 43.3,15.6 41.5,13.9 40.5,15 					"/>
				</g>
			</g>
			<g>
				<g>
					<g>
						<path class="st1" d="M36.5,2.3c-0.6-0.3-1.1-0.7-1.7-1l-1.7-0.8c-1.2-0.6-2.3-1.1-3.5-1.6L26-2.5c-0.6-0.2-1.2-0.5-1.8-0.6
							l-1.9-0.5l-3.9,14.5l1.4,0.4c0.5,0.1,0.9,0.3,1.4,0.5l2.7,1c0.9,0.4,1.7,0.8,2.6,1.2l1.3,0.6c0.4,0.2,0.8,0.5,1.2,0.7
							L36.5,2.3z"/>
					</g>
					<path class="st2" d="M23.5,5.2L24,3.8c-0.8-0.3-1.6-0.6-2.4-0.8l-0.4,1.4C22,4.6,22.7,4.9,23.5,5.2z"/>
					<path class="st2" d="M27.6,6.8l0.6-1.4c-0.8-0.4-1.6-0.7-2.4-1l-0.5,1.4C26.1,6.1,26.9,6.4,27.6,6.8z"/>
					<path class="st2" d="M31.6,8.8l0.7-1.3c-0.7-0.4-1.5-0.8-2.3-1.1l-0.7,1.3C30.1,8,30.9,8.3,31.6,8.8z"/>
				</g>
			</g>
			<g>
				<g>
					<g>
						<path class="st1" d="M22.3-3.6c-1.3-0.3-2.5-0.7-3.8-0.9l-3.8-0.6c-0.6-0.1-1.3-0.2-1.9-0.3l-1.9-0.1L7-5.6v15l2.9,0.1
							l1.4,0.1c0.5,0,0.9,0.1,1.4,0.2l2.8,0.4c0.9,0.2,1.9,0.5,2.8,0.7L22.3-3.6z"/>
					</g>
					<polygon class="st2" points="10.5,2.6 10.6,1.1 8,1 8,2.5 					"/>
					<polygon class="st2" points="14.9,3.1 15.1,1.6 12.6,1.2 12.4,2.7 					"/>
					<path class="st2" d="M19.2,3.9l0.4-1.5c-0.8-0.2-1.6-0.5-2.5-0.6l-0.3,1.5C17.6,3.5,18.4,3.7,19.2,3.9z"/>
				</g>
			</g>
		</g>
	</g>
</g>
<rect x="3" y="1.9" class="st3" width="4" height="53.6"/>
<path class="st4" d="M7.2,5.9h1.6c0.5,0,1,0.4,1,0.9l0,0c0,0.5-0.4,0.9-1,0.9H7.2"/>
<line class="st5" x1="7" y1="6.8" x2="7" y2="6.8"/>
<path class="st4" d="M2.7,7.7H1.1c-0.1,0-0.2,0-0.3,0l0,0C0.4,7.5,0.1,7.2,0.1,6.8l0,0c0-0.5,0.4-0.9,1-0.9h1.6"/>
<path class="st4" d="M0.8,7.5v6.2c0,0.1-0.1,0.3-0.3,0.3H0.4c-0.1,0-0.3-0.1-0.3-0.3V6.8"/>
<path class="st4" d="M0.8,8.3"/>
<path class="st6" d="M9.2,7.5v6.2c0,0.1,0.1,0.3,0.3,0.3h0.1c0.1,0,0.3-0.1,0.3-0.3V6.8"/>
<g class="st0">
	<g>
		<g>
			<g>
				<g>
					<g>
						<g>
							<rect x="12.5" y="46" class="st1" width="12.9" height="15"/>
						</g>
						<rect x="22" y="52.9" class="st2" width="2.4" height="1.5"/>
						<rect x="17.7" y="52.9" class="st2" width="2.4" height="1.5"/>
						<rect x="13.4" y="52.9" class="st2" width="2.4" height="1.5"/>
					</g>
				</g>
				<g>
					<g>
						<g>
							<rect x="25.3" y="46" class="st1" width="12.9" height="15"/>
						</g>
						<rect x="34.8" y="52.9" class="st2" width="2.4" height="1.5"/>
						<rect x="30.6" y="52.9" class="st2" width="2.4" height="1.5"/>
						<rect x="26.3" y="52.9" class="st2" width="2.4" height="1.5"/>
					</g>
				</g>
				<g>
					<g>
						<g>
							<rect x="38.2" y="46" class="st1" width="12.9" height="15"/>
						</g>
						<rect x="47.7" y="52.9" class="st2" width="2.4" height="1.5"/>
						<rect x="43.4" y="52.9" class="st2" width="2.4" height="1.5"/>
						<rect x="39.1" y="52.9" class="st2" width="2.4" height="1.5"/>
					</g>
				</g>
				<g>
					<g>
						<g>
							<rect x="38.2" y="50" class="st1" width="12.9" height="15"/>
						</g>
						<rect x="39.1" y="56.5" class="st2" width="2.4" height="1.5"/>
						<rect x="43.4" y="56.5" class="st2" width="2.4" height="1.5"/>
						<rect x="47.7" y="56.5" class="st2" width="2.4" height="1.5"/>
					</g>
				</g>
				<g>
					<g>
						<g>
							<rect x="25.3" y="50" class="st1" width="12.9" height="15"/>
						</g>
						<rect x="26.3" y="56.5" class="st2" width="2.4" height="1.5"/>
						<rect x="30.5" y="56.5" class="st2" width="2.4" height="1.5"/>
						<rect x="34.8" y="56.5" class="st2" width="2.4" height="1.5"/>
					</g>
				</g>
				<g>
					<g>
						<g>
							<rect x="12.5" y="50" class="st1" width="12.9" height="15"/>
						</g>
						<rect x="13.4" y="56.5" class="st2" width="2.4" height="1.5"/>
						<rect x="17.7" y="56.5" class="st2" width="2.4" height="1.5"/>
						<rect x="22" y="56.5" class="st2" width="2.4" height="1.5"/>
					</g>
				</g>
				<g>
					<rect x="52.1" y="52.8" class="st2" width="2.5" height="1.5"/>
					<polygon class="st2" points="59.1,52.8 56.6,52.8 56.6,54.3 57.6,54.3 57.6,55.3 59.1,55.3 					"/>
					<rect x="57.6" y="57.3" class="st2" width="1.5" height="2.5"/>
				</g>
				<g>
					<rect x="57.7" y="51" class="st2" width="1.5" height="2.5"/>
					<polygon class="st2" points="59.2,58 59.2,55.5 57.7,55.5 57.7,56.5 56.7,56.5 56.7,58 					"/>
					<rect x="52.2" y="56.5" class="st2" width="2.5" height="1.5"/>
				</g>
				<g>
					<rect x="8.9" y="56.6" class="st2" width="2.5" height="1.5"/>
					<polygon class="st2" points="4.4,58.1 6.9,58.1 6.9,56.6 5.9,56.6 5.9,55.6 4.4,55.6 					"/>
					<rect x="4.4" y="51.1" class="st2" width="1.5" height="2.5"/>
				</g>
				<g>
					<rect x="4.3" y="57.4" class="st2" width="1.5" height="2.5"/>
					<polygon class="st2" points="4.3,52.9 4.3,55.4 5.8,55.4 5.8,54.4 6.8,54.4 6.8,52.9 					"/>
					<rect x="8.8" y="52.9" class="st2" width="2.5" height="1.5"/>
				</g>
			</g>
		</g>
	</g>
	<g>
		<g>
			<g>
				<g>
					<g>
						<path class="st1" d="M47,57.7v1.5v0.1c0-0.2,0-0.4,0-0.6c0-0.4,0.1-0.7,0.2-1.1c0.2-0.7,0.5-1.5,1.1-2.2
							c0.5-0.7,1.2-1.3,2.1-1.8c0.5-0.2,1-0.5,1.5-0.6c0.3-0.1,0.6-0.1,0.8-0.2c0.1,0,0.3,0,0.4,0h0.2h0.1h0.1l0,0l0,0
							c0,1.7,0-3.7,0,3.7c0-7.4,0-2.1,0-3.7l0,0l0,0h0.1h0.1h0.2c0.1,0,0.3,0,0.4,0c0.3,0,0.6,0.1,0.8,0.2c0.5,0.1,1.1,0.3,1.5,0.6
							c0.9,0.5,1.6,1.2,2.1,1.8c0.5,0.7,0.9,1.4,1.1,2.2c0.1,0.4,0.2,0.7,0.2,1.1c0,0.2,0,0.4,0,0.6v-0.1v-1.5H45v1.5v0.1
							c0,0.2,0,0.5,0,0.7c0,0.5,0.1,1,0.3,1.5c0.3,1,0.7,2,1.4,2.9s1.6,1.7,2.7,2.3c0.6,0.3,1.2,0.6,1.9,0.7c0.3,0.1,0.7,0.2,1,0.2
							c0.2,0,0.3,0,0.5,0h0.3h0.1h0.1l0,0l0,0c0-1.7,0,3.7,0-3.7c0,7.4,0,2.1,0,3.7l0,0l0,0h0.1h0.1h0.3c0.2,0,0.3,0,0.5,0
							c0.3,0,0.7-0.1,1-0.2c0.7-0.2,1.3-0.4,1.9-0.7c1.1-0.6,2-1.5,2.7-2.3c0.7-0.9,1.1-1.9,1.4-2.9c0.1-0.5,0.2-1,0.3-1.5
							c0-0.2,0-0.5,0-0.7v-0.1v-1.5H47z"/>
					</g>
					<rect x="52.2" y="58.1" class="st2" width="1.5" height="1.1"/>
					<path class="st2" d="M54.5,60.5l-1-1.1h0.2l-1,1.1C53.2,60.9,54,60.9,54.5,60.5z"/>
					<rect x="53.5" y="58.1" class="st2" width="1.5" height="1.1"/>
				</g>
			</g>
		</g>
	</g>
	<g>
		<g>
			<g>
				<g>
					<g>
						<path class="st1" d="M60.3,53.2v-1.5v-0.1c0,0.2,0,0.4,0,0.6c0,0.4-0.1,0.8-0.2,1.1c-0.2,0.7-0.6,1.5-1.1,2.2
							s-1.2,1.3-2.1,1.8c-0.9,0.5-2.1,0.8-3.2,0.8c-1.1,0-2.3-0.3-3.2-0.8s-1.6-1.2-2.1-1.8c-0.5-0.7-0.9-1.4-1.1-2.2
							c-0.1-0.4-0.2-0.7-0.2-1.1c0-0.2,0-0.4,0-0.6v0.1v1.5h15v-1.5v-0.1c0-0.2,0-0.5,0-0.7c0-0.5-0.1-1-0.3-1.5
							c-0.3-1-0.7-2-1.4-2.9s-1.6-1.7-2.7-2.3c-1.1-0.6-2.5-1-3.9-1s-2.8,0.4-3.9,1c-1.1,0.6-2,1.5-2.7,2.3
							c-0.7,0.9-1.1,1.9-1.4,2.9c-0.1,0.5-0.2,1-0.3,1.5c0,0.3,0,0.5,0,0.8v0.1v1.5L60.3,53.2L60.3,53.2z"/>
					</g>
					<rect x="53.5" y="51.6" class="st2" width="1.5" height="1.1"/>
					<path class="st2" d="M52.8,50.4l1,1.1h-0.2l1-1.1C54.1,50,53.2,50,52.8,50.4z"/>
					<rect x="52.2" y="51.6" class="st2" width="1.5" height="1.1"/>
				</g>
			</g>
		</g>
	</g>
	<g>
		<g>
			<g>
				<g>
					<g>
						<path class="st1" d="M52.9,43.8h-3.5h-1.7h-0.9l0,0l0,0c0,0-0.1,0,0.1,0c0.5,0,1,0.1,1.5,0.2c1,0.2,1.9,0.6,2.7,1.2
							c1.6,1.1,2.7,3,2.9,5c0,0.2,0,0.5,0,0.7s0,0.1,0,0.1l0,0v-0.1l0,0l0,0v0.4c0,0.5-0.1,1-0.2,1.5c-0.5,1.9-1.8,3.6-3.5,4.5
							c-0.9,0.5-1.9,0.8-2.8,0.8h-0.4c-0.1,0-0.3,0-0.2,0l0,0H47h0.2h0.4h0.9h1.7h3.5v-15h-3.5h-1.7h-0.9h-0.4H47h-0.1l0,0h-0.3
							h-0.4c-1.1,0.1-2.1,0.4-3,0.9c-1.9,1-3.3,2.8-3.8,4.8C39.1,49.4,39,50,39,50.5v0.4V51v0.1c0,0.3,0,0.5,0.1,0.8
							c0.2,2.1,1.4,4.1,3.1,5.3c0.8,0.6,1.8,1.1,2.9,1.3c0.5,0.1,1.1,0.2,1.6,0.2h0.2h0.9h1.7H53L52.9,43.8L52.9,43.8z"/>
					</g>
					<rect x="50" y="50.1" class="st2" width="2.6" height="1.5"/>
					<path class="st2" d="M47.2,51.8v-1.5h-0.3h-0.1l0,0l0,0c0.1,0,0.3,0.1,0.4,0.2c0.1,0.1,0.2,0.2,0.2,0.3s0,0.2,0,0.2v-0.1
						c0-0.1,0,0,0,0.1s0,0.1-0.1,0.2c-0.1,0.1-0.2,0.2-0.3,0.3c-0.1,0-0.1,0.1-0.2,0.1h-0.1l0,0h0.2h0.3h0.6v-1.5h-0.6h-0.3h-0.2
						c0,0-0.1,0-0.2,0c-0.1,0-0.2,0-0.2,0.1c-0.1,0.1-0.3,0.2-0.3,0.3s-0.1,0.1-0.1,0.2c0,0.1,0,0.2,0,0.2V51c0,0.1,0,0.2,0,0.2
						c0,0.2,0.1,0.3,0.3,0.4c0.1,0.1,0.3,0.2,0.4,0.2h0.2C46.8,51.8,47.2,51.8,47.2,51.8z"/>
					<rect x="49.3" y="50.3" class="st2" width="2.6" height="1.5"/>
				</g>
			</g>
		</g>
	</g>
	<g>
		<g>
			<path class="st5" d="M52.2,51.3"/>
		</g>
	</g>
	<g>
		<g>
			<g>
				<g>
					<g>
						<path class="st1" d="M52.9,52.2h-3.5h-1.7h-0.9h-0.2c-0.5,0-1.1,0.1-1.6,0.2c-1,0.2-2,0.7-2.9,1.3c-1.7,1.2-2.9,3.2-3.1,5.3
							c0,0.3,0,0.5-0.1,0.8v0.1V60v0.4c0,0.5,0.1,1.1,0.2,1.6c0.6,2.1,1.9,3.8,3.8,4.8c0.9,0.5,2,0.8,3,0.9h0.4h0.3l0,0h0.1h0.2h0.4
							h0.9h1.7h3.5v-15h-3.5h-1.7h-0.9h-0.4h-0.2h-0.1l0,0c-0.1,0,0.1,0,0.2,0h0.4c1,0.1,2,0.4,2.8,0.8c1.7,0.9,3,2.6,3.5,4.5
							c0.1,0.5,0.2,1,0.2,1.5v0.4l0,0l0,0v-0.1l0,0c0,0,0-0.1,0,0.1c0,0.2,0,0.5,0,0.7c-0.2,2-1.3,3.8-2.9,5c-0.8,0.6-1.7,1-2.7,1.2
							c-0.5,0.1-1,0.2-1.5,0.2c-0.2,0-0.1,0-0.1,0l0,0l0,0h0.9h1.7h3.5V52.2H52.9z"/>
					</g>
					<rect x="50" y="59.8" class="st2" width="2.6" height="1.5"/>
					<path class="st2" d="M47.2,60.2v-1.5h-0.3h-0.2c-0.3,0-0.5,0.1-0.7,0.3s-0.3,0.4-0.4,0.6c0,0.1-0.1,0.3-0.1,0.4l0,0
						c0,0,0,0.1,0,0.3c0,0.1,0.1,0.2,0.1,0.4c0.1,0.2,0.3,0.4,0.5,0.5c0.1,0.1,0.2,0.1,0.4,0.1c0.1,0,0.1,0,0.2,0h0.1H47h0.3h0.6
						v-1.5h-0.6H47h-0.2l0,0h0.1C47.4,60.1,46.4,60.2,47.2,60.2z"/>
					<rect x="49.3" y="58.7" class="st2" width="2.6" height="1.5"/>
				</g>
			</g>
		</g>
	</g>
</g>
<rect x="2.8" y="1.8" class="st7" width="4.1" height="53.6"/>
<path class="st8" d="M2.7,5.9H1.1c-0.5,0-1,0.4-1,0.9c0,0,0,0,0,0.1l0,0v6.8c0,0.1,0.1,0.3,0.3,0.3h0.1c0.1,0,0.3-0.1,0.3-0.3V7.6
	l0,0c0.1,0,0.2,0,0.3,0h1.6C2.7,7.6,2.7,5.9,2.7,5.9z"/>
<path class="st8" d="M9.8,6.8L9.8,6.8c0-0.5-0.4-0.9-1-0.9H7.2v1.7h1.6c0.1,0,0.2,0,0.3-0.1v6.1c0,0.1,0.1,0.3,0.3,0.3h0.1
	c0.1,0,0.3-0.1,0.3-0.3L9.8,6.8L9.8,6.8z"/>
<path class="st9" d="M54.6,53.2v-1.6c0-0.5-0.4-1-0.9-1c0,0,0,0-0.1,0l0,0h-6.8c-0.1,0-0.3,0.1-0.3,0.3V51c0,0.1,0.1,0.3,0.3,0.3
	h6.1l0,0c0,0.1,0,0.2,0,0.3v1.6C52.9,53.2,54.6,53.2,54.6,53.2z"/>
<path class="st9" d="M53.6,60.3L53.6,60.3c0.5,0,0.9-0.4,0.9-1v-1.6h-1.7v1.6c0,0.1,0,0.2,0.1,0.3h-6.1c-0.1,0-0.3,0.1-0.3,0.3V60
	c0,0.1,0.1,0.3,0.3,0.3L53.6,60.3L53.6,60.3z"/>
</svg>
