<?xml version="1.0" encoding="utf-8"?>
<!-- Generator: Adobe Illustrator 21.0.0, SVG Export Plug-In . SVG Version: 6.00 Build 0)  -->
<svg version="1.1" id="图层_1" xmlns="http://www.w3.org/2000/svg" xmlns:xlink="http://www.w3.org/1999/xlink" x="0px" y="0px"
	 viewBox="0 0 72.2 46.6" style="enable-background:new 0 0 72.2 46.6;" xml:space="preserve">
<style type="text/css">
	.st0{fill:none;stroke:#FFFFFF;stroke-linecap:round;stroke-linejoin:round;stroke-miterlimit:10;}
</style>
<rect x="0.5" y="6.2" class="st0" width="71.2" height="39.9"/>
<rect x="2.9" y="9" class="st0" width="36.9" height="34.6"/>
<polygon class="st0" points="21.3,24.5 21.7,24.5 21.7,24.5 21.9,24.5 21.9,24.6 22,24.6 22.1,24.6 22.2,24.6 22.2,24.7 22.2,24.7 
	22.3,24.8 22.3,24.8 22.3,24.8 22.4,24.8 22.5,24.9 22.5,24.9 22.5,24.9 22.5,25 22.6,25 22.6,25.2 22.6,25.2 22.6,25.2 22.7,25.3 
	22.7,25.3 22.8,25.4 22.8,25.5 22.8,25.5 22.8,25.6 22.9,25.6 22.9,25.8 22.9,25.8 22.9,26.7 22.9,26.8 22.9,26.9 22.8,26.9 
	22.8,27 22.8,27.1 22.8,27.1 22.7,27.1 22.7,27.2 22.6,27.2 22.6,27.3 22.3,27.7 22.2,27.7 22.2,27.7 22.1,27.7 22.1,27.8 22,27.8 
	21.9,27.8 21.8,27.8 21.8,27.9 21.4,27.9 21.4,28.1 21.3,28.1 21.2,27.9 20.9,27.9 20.8,27.8 20.7,27.8 20.7,27.8 20.6,27.8 
	20.5,27.7 20.5,27.7 20.5,27.7 20.4,27.7 20.2,27.5 20.2,27.5 20.2,27.4 20.1,27.4 20.1,27.4 20.1,27.4 20.1,27.3 20,27.2 20,27.2 
	19.9,27.1 19.9,27.1 19.9,27.1 19.9,26.9 19.8,26.9 19.8,26.8 19.8,26.8 19.8,26.4 19.7,26.4 19.7,26 19.8,26 19.8,25.8 19.8,25.7 
	19.8,25.6 19.9,25.5 19.9,25.5 19.9,25.4 19.9,25.3 20,25.3 20,25.2 20.1,25.2 20.1,25.2 20.3,24.8 20.4,24.8 20.4,24.8 20.4,24.8 
	20.4,24.7 20.5,24.7 20.5,24.6 20.6,24.6 20.7,24.6 20.7,24.6 20.8,24.5 21,24.5 21,24.5 "/>
<polygon class="st0" points="61.2,24.5 61.5,24.5 61.6,24.5 61.7,24.5 61.8,24.6 61.9,24.6 61.9,24.6 61.9,24.6 62,24.7 62.1,24.7 
	62.1,24.8 62.1,24.8 62.2,24.8 62.2,24.8 62.2,24.9 62.4,25.2 62.4,25.2 62.5,25.2 62.5,25.3 62.5,25.3 62.5,25.4 62.6,25.4 
	62.6,25.5 62.7,25.6 62.7,25.6 62.7,25.7 62.7,25.9 62.8,25.9 62.8,26.4 62.7,26.5 62.7,26.8 62.7,26.8 62.7,26.9 62.6,26.9 
	62.6,27.1 62.5,27.1 62.5,27.2 62.5,27.2 62.5,27.2 62.4,27.3 62.4,27.4 62.4,27.4 62.4,27.4 62.3,27.4 62.3,27.5 62.2,27.5 
	62.2,27.5 62.2,27.5 62.2,27.6 62.1,27.6 62.1,27.7 62,27.7 62,27.7 61.9,27.7 61.9,27.8 61.8,27.8 61.8,27.8 61.6,27.8 61.6,27.9 
	61.3,27.9 61.2,28.1 61,28.1 61,27.9 60.7,27.9 60.7,27.8 60.6,27.8 60.5,27.8 60.4,27.8 60.4,27.7 60.3,27.7 60.3,27.7 60.2,27.7 
	60.2,27.6 60.1,27.6 60.1,27.5 60.1,27.5 60.1,27.5 60,27.5 59.9,27.4 59.9,27.3 59.8,27.3 59.8,27.2 59.8,27.2 59.8,27.1 
	59.7,27.1 59.7,27.1 59.7,27 59.7,26.9 59.6,26.9 59.6,26.7 59.5,26.5 59.5,25.8 59.6,25.8 59.6,25.6 59.7,25.6 59.7,25.5 
	59.7,25.5 59.7,25.4 59.8,25.3 59.8,25.3 59.9,25.2 59.9,25 60,25 60,24.9 60,24.9 60,24.9 60.1,24.9 60.1,24.8 60.1,24.8 
	60.3,24.7 60.3,24.7 60.3,24.6 60.4,24.6 60.4,24.6 60.6,24.6 60.6,24.5 60.7,24.5 60.8,24.5 "/>
<rect x="0.5" y="6.2" class="st0" width="71.2" height="39.9"/>
<polygon class="st0" points="0.5,46.1 71.7,46.1 71.7,6.2 0.5,6.2 0.5,46.1 71.7,46.1 71.7,6.2 0.5,6.2 "/>
<rect x="2.9" y="9" class="st0" width="36.9" height="34.6"/>
<polygon class="st0" points="2.9,43.6 39.8,43.6 39.8,9 2.9,9 2.9,43.6 39.8,43.6 39.8,9 2.9,9 "/>
<rect x="42.2" y="9" class="st0" width="27.1" height="34.6"/>
<polygon class="st0" points="40.6,2.2 41.4,3.2 28.4,17.4 27.6,16.4 "/>
<polygon class="st0" points="22.9,26.2 22.9,25.8 22.9,25.8 22.9,25.6 22.8,25.6 22.8,25.5 22.8,25.5 22.8,25.4 22.7,25.3 
	22.7,25.3 22.6,25.2 22.6,25.2 22.6,25.2 22.6,25 22.5,25 22.5,24.9 22.5,24.9 22.5,24.9 22.4,24.8 22.3,24.8 22.3,24.8 22.3,24.8 
	22.2,24.7 22.2,24.7 22.2,24.6 22.1,24.6 22,24.6 21.9,24.6 21.9,24.5 21.7,24.5 21.7,24.5 21,24.5 21,24.5 20.8,24.5 20.7,24.6 
	20.7,24.6 20.6,24.6 20.5,24.6 20.5,24.7 20.4,24.7 20.4,24.8 20.4,24.8 20.4,24.8 20.3,24.8 20.1,25.2 20.1,25.2 20,25.2 20,25.3 
	19.9,25.3 19.9,25.4 19.9,25.5 19.9,25.5 19.8,25.6 19.8,25.7 19.8,25.8 19.8,26 19.7,26 19.7,26.4 19.8,26.4 19.8,26.8 19.8,26.8 
	19.8,26.9 19.9,26.9 19.9,27.1 19.9,27.1 19.9,27.1 20,27.2 20,27.2 20.1,27.3 20.1,27.4 20.1,27.4 20.1,27.4 20.2,27.4 20.2,27.5 
	20.2,27.5 20.4,27.7 20.5,27.7 20.5,27.7 20.5,27.7 20.6,27.8 20.7,27.8 20.7,27.8 20.8,27.8 20.9,27.9 21.2,27.9 21.3,28.1 
	21.4,28.1 21.4,27.9 21.8,27.9 21.8,27.8 21.9,27.8 22,27.8 22.1,27.8 22.1,27.7 22.2,27.7 22.2,27.7 22.3,27.7 22.6,27.3 
	22.6,27.2 22.7,27.2 22.7,27.1 22.8,27.1 22.8,27.1 22.8,27 22.8,26.9 22.9,26.9 22.9,26.8 22.9,26.7 "/>
<polygon class="st0" points="62.8,26.2 62.8,25.9 62.7,25.9 62.7,25.7 62.7,25.6 62.7,25.6 62.6,25.5 62.6,25.4 62.5,25.4 
	62.5,25.3 62.5,25.3 62.5,25.2 62.4,25.2 62.4,25.2 62.2,24.9 62.2,24.8 62.2,24.8 62.1,24.8 62.1,24.8 62.1,24.7 62,24.7 
	61.9,24.6 61.9,24.6 61.9,24.6 61.8,24.6 61.7,24.5 61.6,24.5 61.5,24.5 60.8,24.5 60.7,24.5 60.6,24.5 60.6,24.6 60.4,24.6 
	60.4,24.6 60.3,24.6 60.3,24.7 60.3,24.7 60.1,24.8 60.1,24.8 60.1,24.9 60,24.9 60,24.9 60,24.9 60,25 59.9,25 59.9,25.2 
	59.8,25.3 59.8,25.3 59.7,25.4 59.7,25.5 59.7,25.5 59.7,25.6 59.6,25.6 59.6,25.8 59.5,25.8 59.5,26.5 59.6,26.7 59.6,26.9 
	59.7,26.9 59.7,27 59.7,27.1 59.7,27.1 59.8,27.1 59.8,27.2 59.8,27.2 59.8,27.3 59.9,27.3 59.9,27.4 60,27.5 60.1,27.5 60.1,27.5 
	60.1,27.5 60.1,27.6 60.2,27.6 60.2,27.7 60.3,27.7 60.3,27.7 60.4,27.7 60.4,27.8 60.5,27.8 60.6,27.8 60.7,27.8 60.7,27.9 
	61,27.9 61,28.1 61.2,28.1 61.3,27.9 61.6,27.9 61.6,27.8 61.8,27.8 61.8,27.8 61.9,27.8 61.9,27.7 62,27.7 62,27.7 62.1,27.7 
	62.1,27.6 62.2,27.6 62.2,27.5 62.2,27.5 62.2,27.5 62.3,27.5 62.3,27.4 62.4,27.4 62.4,27.4 62.4,27.4 62.4,27.3 62.5,27.2 
	62.5,27.2 62.5,27.2 62.5,27.1 62.6,27.1 62.6,26.9 62.7,26.9 62.7,26.8 62.7,26.8 62.7,26.5 62.8,26.4 "/>
<rect x="42.2" y="9" class="st0" width="27.1" height="34.6"/>
<polygon class="st0" points="40.6,2.2 41.4,3.2 28.4,17.4 27.6,16.4 "/>
<polyline class="st0" points="40,4.7 40.2,4.7 40.2,4.8 40.3,4.8 40.3,4.8 40.5,4.8 40.5,4.9 40.8,4.9 40.8,4.9 41.2,4.9 41.2,4.9 
	41.5,4.9 41.5,4.8 41.7,4.8 41.7,4.8 41.8,4.8 41.9,4.7 42,4.7 42,4.6 42.1,4.6 42.3,4.5 42.3,4.5 42.3,4.4 42.4,4.4 42.4,4.3 
	42.4,4.3 42.4,4.3 42.5,4.3 42.5,4.2 42.6,4.2 42.6,4.2 42.7,3.9 42.7,3.9 42.7,3.9 42.7,3.8 42.8,3.8 42.8,3.6 42.9,3.6 42.9,3.5 
	42.9,3.5 42.9,3.3 43,3.3 43,3.1 43,3 43,2.4 43,2.3 43,2.1 42.9,2.1 42.9,1.9 42.9,1.9 42.9,1.8 42.8,1.7 42.8,1.7 42.7,1.7 
	42.7,1.6 42.7,1.6 42.7,1.5 42.6,1.4 42.6,1.4 42.6,1.4 42.6,1.3 42.4,1.1 42.4,1.1 42.4,1 42.3,1 42.3,1 42.3,1 42.1,0.8 42,0.8 
	42,0.7 41.9,0.7 41.8,0.7 41.8,0.7 41.7,0.6 41.5,0.6 41.5,0.6 41.2,0.6 41.2,0.5 40.8,0.5 40.8,0.6 40.5,0.6 40.5,0.6 40.3,0.6 
	40.2,0.7 40.2,0.7 40.1,0.7 40,0.7 39.9,0.9 39.9,0.9 39.7,1 39.7,1 39.7,1 39.6,1 39.6,1.1 39.6,1.1 39.6,1.3 39.4,1.4 39.4,1.5 
	39.3,1.5 39.3,1.6 39.3,1.6 39.3,1.7 39.2,1.7 39.2,1.8 39.1,1.8 39.1,1.9 39.1,2 39.1,2.1 39,2.2 39,2.5 39,2.5 39,2.9 39,3 
	39,3.3 39.1,3.3 39.1,3.5 39.1,3.5 39.1,3.6 39.2,3.6 39.2,3.7 "/>
<polygon class="st0" points="21.3,24.5 21.4,24.5 21.4,24.5 21.5,24.5 21.6,24.5 21.6,24.5 21.7,24.5 21.7,24.5 21.8,24.5 
	21.9,24.5 21.9,24.5 21.9,24.6 22,24.6 22,24.6 22.1,24.6 22.2,24.6 22.2,24.7 22.2,24.7 22.3,24.8 22.3,24.8 22.3,24.8 22.4,24.8 
	22.5,24.9 22.5,24.9 22.5,24.9 22.5,25 22.6,25 22.6,25.2 22.6,25.2 22.6,25.2 22.7,25.3 22.7,25.3 22.8,25.4 22.8,25.5 22.8,25.5 
	22.8,25.5 22.8,25.6 22.9,25.6 22.9,25.6 22.9,25.7 22.9,25.8 22.9,25.8 22.9,25.8 22.9,25.9 22.9,25.9 22.9,26 22.9,26.1 
	22.9,26.1 22.9,26.2 22.9,26.2 22.9,26.3 22.9,26.4 22.9,26.4 22.9,26.5 22.9,26.5 22.9,26.7 22.9,26.8 22.9,26.8 22.9,26.9 
	22.8,26.9 22.8,27 22.8,27.1 22.8,27.1 22.7,27.1 22.7,27.2 22.6,27.2 22.6,27.3 22.6,27.4 22.5,27.4 22.5,27.5 22.4,27.5 
	22.3,27.6 22.3,27.7 22.2,27.7 22.2,27.7 22.1,27.7 22.1,27.8 22,27.8 22,27.8 21.9,27.8 21.9,27.8 21.8,27.8 21.8,27.9 21.7,27.9 
	21.7,27.9 21.6,27.9 21.6,27.9 21.5,27.9 21.4,27.9 21.4,28.1 21.4,28.1 21.3,28.1 21.3,28.1 21.2,27.9 21.1,27.9 21.1,27.9 
	21,27.9 21,27.9 20.9,27.9 20.8,27.8 20.8,27.8 20.7,27.8 20.7,27.8 20.7,27.8 20.6,27.8 20.5,27.7 20.5,27.7 20.5,27.7 20.4,27.7 
	20.4,27.6 20.3,27.5 20.2,27.5 20.2,27.5 20.2,27.4 20.1,27.4 20.1,27.4 20.1,27.4 20.1,27.3 20,27.2 20,27.2 19.9,27.1 19.9,27.1 
	19.9,27.1 19.9,27 19.9,26.9 19.8,26.9 19.8,26.9 19.8,26.8 19.8,26.8 19.8,26.8 19.8,26.7 19.8,26.5 19.8,26.5 19.8,26.4 
	19.7,26.4 19.7,26.3 19.7,26.2 19.7,26.2 19.7,26.1 19.7,26.1 19.7,26 19.8,26 19.8,25.9 19.8,25.9 19.8,25.8 19.8,25.8 19.8,25.7 
	19.8,25.6 19.8,25.6 19.9,25.5 19.9,25.5 19.9,25.4 19.9,25.3 20,25.3 20,25.2 20.1,25.2 20.1,25.2 20.1,25 20.2,24.9 20.2,24.9 
	20.3,24.8 20.4,24.8 20.4,24.8 20.4,24.8 20.4,24.7 20.5,24.7 20.5,24.6 20.6,24.6 20.7,24.6 20.7,24.6 20.8,24.5 20.8,24.5 
	20.9,24.5 21,24.5 21,24.5 21,24.5 21.1,24.5 21.1,24.5 21.2,24.5 "/>
<polygon class="st0" points="21.3,24.5 21.7,24.5 21.7,24.5 21.9,24.5 21.9,24.6 22,24.6 22.1,24.6 22.2,24.6 22.2,24.7 22.2,24.7 
	22.3,24.8 22.3,24.8 22.3,24.8 22.4,24.8 22.5,24.9 22.5,24.9 22.5,24.9 22.5,25 22.6,25 22.6,25.2 22.6,25.2 22.6,25.2 22.7,25.3 
	22.7,25.3 22.8,25.4 22.8,25.5 22.8,25.5 22.8,25.6 22.9,25.6 22.9,25.8 22.9,25.8 22.9,26.7 22.9,26.8 22.9,26.9 22.8,26.9 
	22.8,27 22.8,27.1 22.8,27.1 22.7,27.1 22.7,27.2 22.6,27.2 22.6,27.3 22.3,27.7 22.2,27.7 22.2,27.7 22.1,27.7 22.1,27.8 22,27.8 
	21.9,27.8 21.8,27.8 21.8,27.9 21.4,27.9 21.4,28.1 21.3,28.1 21.2,27.9 20.9,27.9 20.8,27.8 20.7,27.8 20.7,27.8 20.6,27.8 
	20.5,27.7 20.5,27.7 20.5,27.7 20.4,27.7 20.2,27.5 20.2,27.5 20.2,27.4 20.1,27.4 20.1,27.4 20.1,27.4 20.1,27.3 20,27.2 20,27.2 
	19.9,27.1 19.9,27.1 19.9,27.1 19.9,26.9 19.8,26.9 19.8,26.8 19.8,26.8 19.8,26.4 19.7,26.4 19.7,26 19.8,26 19.8,25.8 19.8,25.7 
	19.8,25.6 19.9,25.5 19.9,25.5 19.9,25.4 19.9,25.3 20,25.3 20,25.2 20.1,25.2 20.1,25.2 20.3,24.8 20.4,24.8 20.4,24.8 20.4,24.8 
	20.4,24.7 20.5,24.7 20.5,24.6 20.6,24.6 20.7,24.6 20.7,24.6 20.8,24.5 21,24.5 21,24.5 "/>
<polygon class="st0" points="61.2,24.5 61.2,24.5 61.3,24.5 61.3,24.5 61.4,24.5 61.5,24.5 61.5,24.5 61.6,24.5 61.6,24.5 
	61.7,24.5 61.8,24.6 61.8,24.6 61.9,24.6 61.9,24.6 61.9,24.6 62,24.7 62.1,24.7 62.1,24.8 62.1,24.8 62.2,24.8 62.2,24.8 
	62.2,24.9 62.3,24.9 62.4,25 62.4,25.2 62.4,25.2 62.5,25.2 62.5,25.3 62.5,25.3 62.5,25.3 62.5,25.4 62.6,25.4 62.6,25.5 
	62.6,25.5 62.7,25.6 62.7,25.6 62.7,25.7 62.7,25.8 62.7,25.8 62.7,25.9 62.8,25.9 62.8,26 62.8,26.1 62.8,26.1 62.8,26.2 
	62.8,26.2 62.8,26.3 62.8,26.4 62.8,26.4 62.7,26.5 62.7,26.5 62.7,26.7 62.7,26.8 62.7,26.8 62.7,26.9 62.7,26.9 62.6,26.9 
	62.6,27 62.6,27.1 62.5,27.1 62.5,27.2 62.5,27.2 62.5,27.2 62.4,27.3 62.4,27.4 62.4,27.4 62.4,27.4 62.3,27.4 62.3,27.5 
	62.2,27.5 62.2,27.5 62.2,27.5 62.2,27.6 62.1,27.6 62.1,27.7 62,27.7 62,27.7 61.9,27.7 61.9,27.8 61.8,27.8 61.8,27.8 61.8,27.8 
	61.7,27.8 61.6,27.8 61.6,27.9 61.5,27.9 61.5,27.9 61.4,27.9 61.3,27.9 61.3,27.9 61.2,28.1 61.2,28.1 61.1,28.1 61,28.1 61,27.9 
	61,27.9 60.9,27.9 60.9,27.9 60.8,27.9 60.7,27.9 60.7,27.9 60.7,27.8 60.6,27.8 60.6,27.8 60.5,27.8 60.4,27.8 60.4,27.7 
	60.3,27.7 60.3,27.7 60.2,27.7 60.2,27.6 60.1,27.6 60.1,27.5 60.1,27.5 60.1,27.5 60,27.5 60,27.4 59.9,27.4 59.9,27.3 59.8,27.3 
	59.8,27.2 59.8,27.2 59.8,27.1 59.7,27.1 59.7,27.1 59.7,27 59.7,26.9 59.7,26.9 59.6,26.9 59.6,26.8 59.6,26.8 59.6,26.7 
	59.5,26.5 59.5,26.5 59.5,26.4 59.5,26.4 59.5,26.3 59.5,26.2 59.5,26.2 59.5,26.1 59.5,26.1 59.5,26 59.5,25.9 59.5,25.9 
	59.5,25.8 59.6,25.8 59.6,25.7 59.6,25.6 59.7,25.6 59.7,25.5 59.7,25.5 59.7,25.5 59.7,25.4 59.8,25.3 59.8,25.3 59.8,25.2 
	59.9,25.2 59.9,25 60,25 60,24.9 60,24.9 60,24.9 60.1,24.9 60.1,24.8 60.1,24.8 60.2,24.8 60.3,24.7 60.3,24.7 60.3,24.6 
	60.4,24.6 60.4,24.6 60.4,24.6 60.5,24.6 60.6,24.6 60.6,24.5 60.7,24.5 60.7,24.5 60.8,24.5 60.9,24.5 60.9,24.5 61,24.5 61,24.5 
	61.1,24.5 "/>
<polygon class="st0" points="61.2,24.5 61.5,24.5 61.6,24.5 61.7,24.5 61.8,24.6 61.9,24.6 61.9,24.6 61.9,24.6 62,24.7 62.1,24.7 
	62.1,24.8 62.1,24.8 62.2,24.8 62.2,24.8 62.2,24.9 62.4,25.2 62.4,25.2 62.5,25.2 62.5,25.3 62.5,25.3 62.5,25.4 62.6,25.4 
	62.6,25.5 62.7,25.6 62.7,25.6 62.7,25.7 62.7,25.9 62.8,25.9 62.8,26.4 62.7,26.5 62.7,26.8 62.7,26.8 62.7,26.9 62.6,26.9 
	62.6,27.1 62.5,27.1 62.5,27.2 62.5,27.2 62.5,27.2 62.4,27.3 62.4,27.4 62.4,27.4 62.4,27.4 62.3,27.4 62.3,27.5 62.2,27.5 
	62.2,27.5 62.2,27.5 62.2,27.6 62.1,27.6 62.1,27.7 62,27.7 62,27.7 61.9,27.7 61.9,27.8 61.8,27.8 61.8,27.8 61.6,27.8 61.6,27.9 
	61.3,27.9 61.2,28.1 61,28.1 61,27.9 60.7,27.9 60.7,27.8 60.6,27.8 60.5,27.8 60.4,27.8 60.4,27.7 60.3,27.7 60.3,27.7 60.2,27.7 
	60.2,27.6 60.1,27.6 60.1,27.5 60.1,27.5 60.1,27.5 60,27.5 59.9,27.4 59.9,27.3 59.8,27.3 59.8,27.2 59.8,27.2 59.8,27.1 
	59.7,27.1 59.7,27.1 59.7,27 59.7,26.9 59.6,26.9 59.6,26.7 59.5,26.5 59.5,25.8 59.6,25.8 59.6,25.6 59.7,25.6 59.7,25.5 
	59.7,25.5 59.7,25.4 59.8,25.3 59.8,25.3 59.9,25.2 59.9,25 60,25 60,24.9 60,24.9 60,24.9 60.1,24.9 60.1,24.8 60.1,24.8 
	60.3,24.7 60.3,24.7 60.3,24.6 60.4,24.6 60.4,24.6 60.6,24.6 60.6,24.5 60.7,24.5 60.8,24.5 "/>
</svg>
