<?xml version="1.0" encoding="utf-8"?>
<!-- Generator: Adobe Illustrator 21.0.0, SVG Export Plug-In . SVG Version: 6.00 Build 0)  -->
<svg version="1.1" id="图层_1" xmlns="http://www.w3.org/2000/svg" xmlns:xlink="http://www.w3.org/1999/xlink" x="0px" y="0px"
	 viewBox="0 0 1559.1 850.4" style="enable-background:new 0 0 1559.1 850.4;" xml:space="preserve">
<style type="text/css">
	.st0{fill:#FFFFFF;}
	.st1{fill:#FFDC00;}
	.st2{fill:#0AC094;}
</style>
<path class="st0" d="M1023,542.2c-13.2-4.1-26.3-8.2-36.4-11.2c-28,2.8-54.5,7.2-81,7.4c-41.6,0.3-78-31.1-82.3-72.6
	c-3.1-29-3.8-59.1,1-87.6c3-17.3,15.1-36.2,28.6-48.1c35.4-31.3,78-30.5,118.8-12.8c38.4,16.6,53,50,50.7,91
	c-1.6,31.1,4.9,63.4-14.5,91.7c-1.8,2.5,0.8,9.2,3,13c4.6,7.9,10.2,15,15.5,22.6C1025.2,537.9,1024,540,1023,542.2L1023,542.2z
	 M989,478c8.1-35.1,9.7-69.5,2.6-104c-0.5-2.6-2.1-5.3-3.6-7.7c-18.8-32.3-73.2-44.4-108.6-24c-19.3,11-30.6,27.5-31.1,50.4
	c-0.3,16.5,0.5,32.9-0.5,49.4c-1.8,28.5,7.7,52.2,33.9,63.9c28.6,12.8,58.6,12.2,88.4-4.3c-12.7-17.9-23.9-33.9-35.4-50
	C964.1,439.6,974,461.3,989,478L989,478z M791.9,541.5c-13.5-4-27.2-8.1-46.6-13.8c-26,14.5-61.2,16.6-96.3,5.8
	c-35.1-11-55.5-36.7-59.1-73.9c-1.5-16.3,0.2-32.9-1-49.2c-5.3-72.8,49.7-114.9,125.6-101.7c45.8,7.9,73.9,39.2,74.9,85.6
	c0.8,35.1,7.6,71.8-13.2,104.7c-2,3.1,0.8,10.5,3.3,15c4.3,7.9,10,15,15.3,22.4C793.9,537.9,792.9,539.7,791.9,541.5L791.9,541.5z
	 M754.6,477.8c3-0.3,5.8-0.8,8.7-1.2c0-25.3,0.2-50.7,0-76c-0.3-32.9-15.3-55.3-42.8-64c-35.7-11.4-75.2-3-91.8,21.7
	c-6.7,10-11,23.2-12.3,35.4c-2.1,18.3-0.5,37-0.7,55.6c-0.2,28.1,13.2,48.9,38.8,58.1c27.7,9.9,56.1,10.4,83-6.6
	c-12.3-18.3-23.2-34.1-33.7-49.7C733.8,438,741.1,463.5,754.6,477.8z M1398,413.8v-55.1c19.4-4.1,27.3,2.1,25.5,20.4
	c-1,10.5-0.2,21.4-0.2,34.2h74.7v21.9h-75.7v103.2c-43.8,7.4-51.2,4.6-52.8-19.3c8.4-0.7,16.6-1.5,26.8-2.3v-81.5
	c-22.2,0-44.1-0.7-66,0.2c-16.3,0.7-24-4.4-22.1-22.2c3.3-30.6,5.4-61.2,8.4-95.1H1488v19.4h-144.2c-2.1,23.7-4.6,43.9-5.4,64.4
	c-0.2,3.8,6.7,10.9,10.9,11.2C1364.7,414.6,1380.4,413.8,1398,413.8L1398,413.8z M1076.5,538.4V426.6c55.3,0,109.5-0.3,163.6,0.7
	c4.9,0.2,13.8,9.1,14,14.2c1.3,31.9,0.7,63.9,0.7,97L1076.5,538.4L1076.5,538.4z M1103,471.4h125c-0.7-8.2-1-14.8-1.6-22.1H1103
	V471.4z M1102,495.7c0.7,8.2,1,14.3,1.5,20.7h124.1c-0.3-7.7-0.7-14.2-1.2-20.7H1102z M1104.8,389.4c-4.6-12.5-7.6-20.4-10.9-29.5
	c14.8-4,26.8-4.6,31.4,13.5c3.1,12.3,11.2,16.6,23.9,15.6c11.4-1,23.2,1.3,34.2-0.8c7.6-1.5,17.8-6.7,20.1-13
	c6.3-16,15.6-20.7,32.8-15c-3,8.4-5.9,16.6-9.9,27.8h50.4c0.8,8.6,1.3,14.5,2,22.1h-226.2v-20.6
	C1069.3,389.4,1085.4,389.4,1104.8,389.4z M1064.8,348.4v-22.9h83.3v-20.9c11.5,3.3,27.3,3.8,29.1,9.1c4.9,14,14.2,11.7,23.7,11.9
	c20.6,0.2,41.3,0,62.7,0c3,12.2,7.7,22.9-10.7,22.9h-188.1V348.4z"/>
<path class="st0" d="M1297.8,533.3c10.7-24.9,18.4-43.1,26.2-61.2c8.4-19.4,8.4-19.4,35.2-15.3c-9.9,23-18.3,46.3-30,67.5
	C1325.9,529.8,1312.1,529.5,1297.8,533.3L1297.8,533.3z M1452,456.7c18.3-4.9,29.8-1.6,35.9,16.6c6.3,18.8,15,36.5,22.6,54.6
	c-21.1,7.4-31.4-0.8-37.5-19.8C1467.5,490.8,1459.4,474.3,1452,456.7z"/>
<path class="st1" d="M371.7,200.9c0,0-0.3,0.2-0.7,0.5C371.4,201.3,371.7,200.9,371.7,200.9z"/>
<path class="st1" d="M378.4,242.1l-6.7-41.2c0,0-4.4,41.6-53.5,86.3c-22.6,20.6-62.4,43.1-62.4,43.1l93.7,162.1c0,0,8.9,26.8-3,52
	c-13.8,29.5-41.6,47.6-95.1,49.1c-47.6,1.3-80.3-26.8-86.3-65.3c-5.9-38.2,18.9-67.7,47.6-78.8c26.8-10.4,71.4-5.9,71.4-5.9
	L180.1,268l1.5-17.8c0,0,33.4,4.3,92.2-7.4c26.8-5.4,49.4-14.3,66.2-22.6c-25.7-11.2-54.2-17.4-83.9-17.4
	c-115.7,0-209.7,93.8-209.7,209.7c0,115.7,93.8,209.7,209.7,209.7c115.7,0,209.7-93.8,209.7-209.7
	C465.4,342.2,431.1,280.3,378.4,242.1L378.4,242.1z"/>
<path class="st2" d="M371.7,200.9c0,0-38.7,29.8-98.1,41.6c-58.8,11.7-92.2,7.4-92.2,7.4l-1.5,17.8l104,175.6c0,0-44.6-4.4-71.4,5.9
	c-28.6,11-53.5,40.7-47.6,78.8c5.9,38.7,38.7,66.7,86.3,65.3c53.5-1.5,81.3-19.6,95.1-49.1c11.9-25.3,3-52,3-52l-93.7-162.1
	c0,0,39.8-22.6,62.4-43.1C367.2,242.6,371.7,200.9,371.7,200.9L371.7,200.9z"/>
</svg>
