<?xml version="1.0" encoding="utf-8"?>
<!-- Generator: Adobe Illustrator 21.0.0, SVG Export Plug-In . SVG Version: 6.00 Build 0)  -->
<svg version="1.1" id="图层_1" xmlns="http://www.w3.org/2000/svg" xmlns:xlink="http://www.w3.org/1999/xlink" x="0px" y="0px"
	 viewBox="0 0 1559.1 850.4" style="enable-background:new 0 0 1559.1 850.4;" xml:space="preserve">
<style type="text/css">
	.st0{fill:#FF6A49;}
	.st1{fill:#3DBCF3;}
</style>
<path class="st0" d="M245.9,607.7c-14-12.9-5.9-34.5-5.9-34.5l65.3-108.6l-76.5-122.3c-6.8-11.4-11.6-20.4-14.5-26.9
	c-2.9-6.4-4.3-12.1-4.3-16.8c0-7.8,2.9-14.5,8.6-20.2c5.7-5.7,12.7-8.4,21.1-8.4c8.8,0,15.4,2.6,20,7.9c4.5,5.3,11.3,15.9,20.4,31.6
	l59.2,102.3l59.9-102.3c3.6-6.2,6.6-11.6,9.1-15.9s5.2-8.3,8.1-12.1c3-3.8,6.2-6.6,9.9-8.6c3.6-2,8.1-3,13.2-3
	c8.1,0,14.8,2.9,20.2,8.4c5.5,5.6,8.1,12.1,8.1,19.3c0,5.9-1.4,12-4.1,17.9c-2.7,5.9-7.4,14.3-14,24.8l-165,263.2
	C284.7,611.3,259.7,620.6,245.9,607.7z M716.8,430.3V300.8c0-11.1,2.3-19.3,7-24.8c4.7-5.5,10.8-8.3,18.4-8.3c7.9,0,14.3,2.7,19,8.3
	c4.7,5.5,7,13.8,7,24.8v132.5c0,15,1.6,27.7,4.8,37.8c3.1,10.2,8.8,17.9,16.9,23.5c8.1,5.6,19.3,8.3,34,8.3c20.2,0,34.3-5.7,42.6-17
	c8.3-11.3,12.5-28.6,12.5-51.6V300.8c0-11.2,2.3-19.5,6.9-25c4.5-5.5,10.8-8.2,18.6-8.2s14,2.7,18.8,8.2c4.8,5.5,7.2,13.8,7.2,25
	v129.5c0,21.1-2,38.7-5.9,52.8s-11.2,26.5-22,37.2c-9.3,9.1-20,15.7-32.2,19.9c-12.2,4.1-26.5,6.2-42.9,6.2
	c-19.5,0-36.3-2.2-50.4-6.8c-14-4.4-25.6-11.4-34.5-20.8c-8.8-9.3-15.4-21.5-19.6-36C718.8,468.1,716.8,450.7,716.8,430.3
	L716.8,430.3z M705.6,404.4c-0.5-28.2-5.7-52.6-15.9-73.4c-10-20.7-24.7-36.7-43.6-47.6c-19.1-11.1-41.7-16.3-68.1-15.9
	c-19.3,0.4-36.7,3.9-51.7,10.5c-15,6.8-27.9,16.3-38.3,28.4c-10.4,12.3-18.3,27.2-23.5,44.5c-5.3,17.4-7.8,36.4-7.4,57.2
	c0.4,20.2,3.4,39,9.1,56.3s13.9,32.1,24.5,44.3c10.7,12.2,24,21.6,39.7,28.1c15.9,6.5,33.6,9.6,53.5,9.3c20-0.4,37.7-4,53-10.8
	c15.4-6.9,28.2-16.6,38.6-29.3s18.1-27.5,23.1-44.7C703.8,444.1,705.9,425.1,705.6,404.4L705.6,404.4z M644.7,460
	c-6.2,14.7-14.8,25.6-25.7,32.7c-10.9,7.1-22.9,10.9-36.1,11.1c-10.2,0.2-19.7-1.7-28.4-5.6c-8.7-3.9-16.4-9.9-23.1-17.9
	c-6.8-8.1-12.1-18.2-15.9-30.6c-3.9-12.3-5.9-26.1-6.2-41.5c-0.2-15.2,1.3-29,4.7-41.2c3.4-12.2,8.2-22.4,14.5-30.2
	c6.1-7.9,13.5-14,22.2-18.3c8.6-4.3,18.1-6.5,28.3-6.6c14.5-0.2,27.3,3.2,38.6,10.4c11.3,7.3,20,18.1,26.3,32.4
	c6.2,14.3,9.6,31.5,9.9,51.1C654,427.3,651,445.3,644.7,460L644.7,460z"/>
<path class="st1" d="M1154.9,301.9c-0.2-10.8,2-18.8,6.6-24.3c4.5-5.5,10.7-8.2,18.2-8.3c7.9-0.2,14.3,2.5,19.1,7.7
	c4.8,5.3,7.3,13.2,7.4,24l2.2,128.9c0.2,14.7,2.1,26.9,5.3,36.7c3.4,9.7,9.1,17.3,17.3,22.6c8.2,5.3,19.5,7.8,34,7.5
	c20-0.4,34-6.1,42.2-17.3c8.1-11.2,12-27.9,11.6-50.3l-2.2-130c-0.2-10.8,2-19,6.5-24.3s10.7-8.2,18.3-8.3c7.7-0.2,14,2.5,18.8,7.7
	c4.8,5.2,7.4,13.2,7.5,24l2.2,126.1c0.4,20.6-1.3,37.7-5,51.3c-3.6,13.8-10.7,26-21.1,36.5c-9.1,9-19.6,15.6-31.7,19.9
	c-12.1,4.3-26.4,6.5-42.7,6.9c-19.5,0.4-36.3-1.6-50.3-5.6c-14.1-4.1-25.7-10.7-34.7-19.6c-9-9-15.7-20.6-20.2-34.7
	c-4.4-14.1-6.8-31.1-7.2-51L1154.9,301.9L1154.9,301.9z M993.7,301.6v91.9l100.7-108.6c4.8-5.2,9-9.1,12.3-11.6s7.9-3.8,13.5-3.8
	c7.4,0,13.4,2.2,17.9,6.8c4.5,4.4,6.8,9.9,6.8,16.4c0,7.8-3.9,15.4-11.6,23l-62.4,61.1l71.9,106.6c5,7.4,8.8,13.9,11.4,19.3
	c2.5,5.6,3.8,10.9,3.8,16.1c0,5.9-2.2,10.9-6.6,15.2c-4.4,4.3-10.4,6.5-18.1,6.5c-7.2,0-13-1.6-17.4-4.7c-4.5-3.1-8.3-7.4-11.4-12.6
	c-3.1-5.2-5.9-10-8.3-14.3l-60.6-96.7l-42,41.6v54.2c0,10.9-2.5,19.1-7.3,24.5c-4.8,5.3-11.1,7.9-18.7,7.9c-4.4,0-8.6-1.2-12.6-3.6
	c-4-2.3-7.2-5.6-9.3-9.6c-1.6-3.4-2.6-7.2-3-11.6c-0.4-4.4-0.5-10.8-0.5-19.1V301.6c0-10.7,2.3-18.7,6.8-24.2
	c4.5-5.3,10.8-8.1,18.6-8.1c7.7,0,13.9,2.6,18.7,7.9C991.3,282.6,993.7,290.8,993.7,301.6z"/>
</svg>
