<?xml version="1.0" encoding="utf-8"?>
<!-- Generator: Adobe Illustrator 21.0.0, SVG Export Plug-In . SVG Version: 6.00 Build 0)  -->
<svg version="1.1" id="图层_1" xmlns="http://www.w3.org/2000/svg" xmlns:xlink="http://www.w3.org/1999/xlink" x="0px" y="0px"
	 viewBox="0 0 1559.1 850.4" style="enable-background:new 0 0 1559.1 850.4;" xml:space="preserve">
<style type="text/css">
	.st0{fill:#F16C8D;}
</style>
<g>
	<path class="st0" d="M496,357.2c-4.8-3-9.4-3.3-9.4-3.3h-0.5c-28.2-1.9-59.6-2.9-93.6-2.9h-6.9c-34,0-65.5,1-93.6,2.9h-0.5
		c0,0-4.6,0.4-9.4,3.3c-7.4,4.5-11.9,12.8-13.5,24.6c-5,37.9-2.2,85.5,0.1,123.8c1.5,24.6,16.5,30.7,41.9,33.1
		c5.3,0.5,34,2.9,78.5,2.9l0,0c44.5,0,73.2-2.4,78.5-2.9c25.4-2.4,40.4-8.4,41.9-33.1c2.3-38.3,5.1-85.9,0.1-123.8
		C507.9,370,503.4,361.7,496,357.2L496,357.2z M303.4,442.3c-5.7,2.9-12.7,0.4-15.6-5.3l0,0c-2.9-5.7-0.4-12.8,5.3-15.6l0,0
		c1-0.5,25-12.2,54.4-21.2c6.2-1.9,12.7,1.6,14.5,7.7c1.9,6.2-1.6,12.7-7.7,14.5C326.7,431,303.7,442.2,303.4,442.3L303.4,442.3z
		 M435.8,459.9c-0.2,1.1-5.6,26.9-25.1,26.9c-10.5,0-17.8-6.9-22.1-13.1c-4.3,6.3-11.2,13.1-21,13.1c-17.5,0-24.7-23.8-25.4-26.5
		c-0.8-3,1-6.1,3.9-6.9c3-0.8,6,0.9,6.9,3.8c1.4,4.8,7,18.3,14.7,18.3c8.1,0,14.2-11.7,15.8-15.8c0.8-2.2,2.9-3.7,5.2-3.7l0,0
		c2.4,0,4.4,1.5,5.2,3.7c0.1,0.2,5.9,15.7,16.9,15.7c10.3,0,14.1-17.7,14.1-17.8c0.6-3,3.6-5,6.5-4.4l0,0
		C434.5,453.9,436.5,456.9,435.8,459.9L435.8,459.9L435.8,459.9z M490.1,437c-2.9,5.7-9.8,8.2-15.6,5.3c-0.3-0.1-23.4-11.4-51-19.9
		c-6.2-1.9-9.7-8.4-7.7-14.5c1.9-6.2,8.4-9.6,14.5-7.7l0,0c29.5,9.1,53.5,20.7,54.4,21.2C490.5,424.2,493,431.1,490.1,437z"/>
	<path class="st0" d="M555.4,198.3H222.5c-33.4,0-60.5,27.1-60.5,60.5v332.9c0,33.4,27.1,60.5,60.5,60.5h332.9
		c33.4,0,60.5-27.1,60.5-60.5V258.8C615.9,225.4,588.8,198.3,555.4,198.3L555.4,198.3z M537.4,507.3c-1.3,21.9-10.7,38.7-27.3,48.5
		c-12.6,7.5-26.6,9.6-40,10.8c-16,1.5-45.6,3-81.1,3c-35.4,0-65.1-1.6-81.1-3c-13.3-1.2-27.3-3.3-40-10.8
		c-16.6-9.8-26-26.6-27.3-48.5c-2.4-39.4-5.2-88.6,0.1-129.1c5.2-40.1,34.6-51.7,49.5-52.3c13.3-0.9,26.7-1.6,40.1-2
		c-3.7-4.2-9.8-11.5-14.2-18.8c-6.8-11.2,4.2-20.5,4.2-20.5s11.7-10,21.9,2.5c7.7,9.5,18.9,27.6,23.9,36l26.2-0.1
		c6.5,0,13,0,19.3,0.1c5.1-8.4,16.2-26.5,23.9-36c10.3-12.6,21.9-2.5,21.9-2.5s11,9.3,4.2,20.5c-4.4,7.3-10.4,14.5-14.2,18.8
		c13.9,0.5,27.3,1.1,40.1,2c15.1,0.6,44.3,12.2,49.5,52.3C542.6,418.7,539.7,467.8,537.4,507.3L537.4,507.3z"/>
</g>
<path class="st0" d="M1238.6,363.8c1.9,0.3,17.2-3,17.8-1.9c1,1.5,7.8,50.5,6,50.9c-1.8,0.3-14.5,3.2-14.5,3.2
	C1247,409.4,1238.6,368.1,1238.6,363.8 M1262.9,359.1l6.7,52.9c3.4-0.2,17.2-1.1,18.5-1.3c-1.9-20-5.4-51.5-5.4-51.5
	C1276.3,357.8,1269.4,357.8,1262.9,359.1 M1249.7,432.4c0,0,30-7.7,40.9-3.9c5.5,20,15.6,132.1,16.5,136.7c-6.8,0.8-29.3,2.8-31,3.2
	C1274.8,560,1249.7,437.7,1249.7,432.4 M1361.1,365.1c1.8,0.5,17.7-1.7,17.8-0.5c0.3,3.9,1.9,51,0.2,51.2
	c-1.7,0.2-14.5,1.3-14.5,1.3C1364.3,410.7,1360.7,369.5,1361.1,365.1 M1385.6,363.8l1.3,52.2c3.4,0,17.1,0.8,18.5,0.6
	c-0.3-20,0-51.5,0-51.5C1398.9,364,1392.2,363.5,1385.6,363.8 M1364.6,433.9c0,0,30.7-4.1,41.1,0.8c2.3,23.4,1.9,132.4,2.3,137
	c-7,0-29.3,0.3-31,0.6C1376.7,563.9,1364.1,439.2,1364.6,433.9 M1293.3,299.8c17.7,90.4,31.2,244.8,31.7,254.7c0,0,14,0.3,29.8,1.3
	c-9.2-97.3-20.6-252.9-20.5-257.9C1330.3,293.5,1293.3,299.8,1293.3,299.8 M1254.3,513.5c-3.4-25.3-94.1-54.2-145.1-44.8
	c0,0-6.4-55.9-8.8-110.1c-2.1-46.5-0.3-91.7,0.2-99.2c-3.4-2.4-40.1,15.2-60,22.5c0,0,23.7,100.4,40.9,308.8c0,0,27.4,3,74.6-6.2
	C1203.3,575.3,1259,547,1254.3,513.5 M1143.5,559.1l-7.9-57.4c1.9-1,50.8,17.2,56.1,20.5C1190.8,525.9,1143.5,559.1,1143.5,559.1
	 M860.8,363.8c1.9,0.3,17.2-3,17.8-1.9c1,1.5,7.8,50.5,6,50.9c-1.8,0.3-14.5,3.2-14.5,3.2C869.3,409.4,861,368.1,860.8,363.8
	 M885.2,359.1l6.7,52.9c3.4-0.2,17.2-1.1,18.5-1.3c-2.1-20-5.4-51.5-5.4-51.5C898.5,357.8,891.8,357.8,885.2,359.1 M872.1,432.4
	c0,0,30-7.7,40.9-3.9c5.5,20,15.6,132.1,16.5,136.7c-6.8,0.8-29.3,2.8-31,3.2C897.1,560,872.1,437.7,872.1,432.4 M983.4,365.1
	c1.8,0.5,17.7-1.7,17.8-0.5c0.3,3.9,1.9,51,0.2,51.2c-1.8,0.2-14.5,1.3-14.5,1.3C986.7,410.7,983.3,369.5,983.4,365.1 M1007.9,363.8
	l1.3,52.2c3.4,0,17.1,0.8,18.5,0.6c-0.3-20,0-51.5,0-51.5C1021.2,364,1014.6,363.6,1007.9,363.8 M986.9,433.9c0,0,30.7-4.1,41.1,0.8
	c2.3,23.4,1.9,132.4,2.3,137c-7,0-29.3,0.3-31,0.6C999.1,563.9,986.5,439.2,986.9,433.9 M915.6,299.8
	c17.7,90.4,31.2,244.8,31.7,254.7c0,0,14,0.3,29.8,1.3c-9.2-97.3-20.6-252.9-20.5-258.1C952.7,293.5,915.6,299.8,915.6,299.8
	 M876.6,513.5c-3.4-25.3-94.1-54.2-145.1-44.8c0,0-6.4-55.9-8.8-110.1c-2.1-46.5-0.3-91.7,0.2-99.2c-3.4-2.3-40.1,15.2-60,22.5
	c0,0,23.7,100.4,40.9,308.8c0,0,27.4,3,74.6-6.2C825.6,575.3,881.3,547,876.6,513.5 M765.8,559.1l-7.9-57.4
	c1.9-1,50.9,17.2,56.1,20.5C813,525.9,765.8,559.1,765.8,559.1"/>
</svg>
