<?xml version="1.0" encoding="utf-8"?>
<!-- Generator: Adobe Illustrator 21.0.0, SVG Export Plug-In . SVG Version: 6.00 Build 0)  -->
<svg version="1.1" id="图层_1" xmlns="http://www.w3.org/2000/svg" xmlns:xlink="http://www.w3.org/1999/xlink" x="0px" y="0px"
	 viewBox="0 0 1559.1 850.4" style="enable-background:new 0 0 1559.1 850.4;" xml:space="preserve">
<style type="text/css">
	.st0{fill:#79A623;}
</style>
<path class="st0" d="M845.7,498.7c-12.3-10.9-23.8-21.1-36-32c-1.5,1.6-3.6,3.7-5.5,6c-11.7,14-26.1,24.8-41.9,33.6
	c-4.1,2.3-10.1,2.3-14.8,1.3c-8.1-1.8-10.4-12.5-3.6-17.5c6.7-5,14.1-8.9,21.1-13.6c20.8-14.4,35.7-33.7,46.9-56.1
	c0.5-1,0.8-1.9,1.5-3.9c-2.6-0.2-4.5-0.5-6.5-0.5H777c-7.6-0.2-10.2-2.3-12.8-9.1c-0.5-1.1-2.4-2.4-3.9-2.4
	c-9.7-0.5-13-3.6-12.8-13.3c0.2-8.4,0-16.9,1.3-25.1c1-7.3,7.5-11.5,14.9-11.5h29.2c-2.9-4.4-5-7.3-6.8-10.2
	c-2.6-4.4-4.7-8.9-7.3-13.1c-0.6-1.1-2.4-2.1-3.9-2.3c-3.6-0.6-7.3-0.6-10.7-1.5c-5.5-1.3-8.8-5.7-8.3-10.7
	c0.5-5.2,4.9-9.4,10.5-9.2c16.7,0.2,33.3,1.1,50,1.1c41.4,0.2,82.6-2.3,123.5-8.9c4.5-0.8,9.6-1.1,14-0.3c4.5,0.8,7.5,4.4,7.3,9.6
	c-0.2,5.4-2.6,9.2-8.1,10.4c-6.3,1.3-12.7,2.3-18.2,3.2c-1,5.4-1.5,10.7-2.9,15.7c-1.6,5.2-4.2,10.1-6.8,16.4h21.1
	c1.5,0,3.1,0.2,4.5,0c17-1.5,21.3,9.2,19,23.5c-0.8,5.5-2.4,10.9-3.9,16.1c-3.1,11.2-5.8,13.1-17.7,12.7c-2.6,7.6-8.8,9.4-16.2,9.4
	c-27.3-0.2-54.5-0.2-81.8-0.2c-11.7,0-11.7,0.2-14,12.8c2.1,0.2,4.1,0.5,6.2,0.5c24.2,0,48.3,0,72.5,0.2c3.2,0,6.5,0.3,9.6,1.1
	c5.4,1.3,8.4,5.4,7.6,10.5c-1,5.8-2.6,12-5.4,17.4c-6.5,12.5-16.1,22.7-26.8,31.8c-1.5,1.3-2.8,2.6-5.4,5
	c11.2,3.6,21.1,7.5,31.5,9.7c13.6,2.8,27.4,4.4,41.4,6.2c7.9,1,12,5.5,11,13.6c-0.6,5.7-6.7,9.2-13.5,8.6
	c-30.8-2.9-60.3-10.5-88.9-22.7c-2.6-1.1-6.7-0.8-9.1,0.5c-27.1,14.4-56.6,20.4-86.6,24.5c-6.2,0.8-12.8,1.5-17-5.2
	c-4.7-7.3,1.1-16.5,11-17c19.3-1,38.3-3.7,56.9-9.2C835.6,502.6,840.3,500.7,845.7,498.7L845.7,498.7z M847.9,393.8
	c2.8,0.2,5.2,0.5,7.6,0.5H932c9.9,0,9.9,0.2,13.3-9.1c2.4-6.7,1.6-8.1-5.2-8.1c-28.6-0.2-57.1,0-85.7,0c-1.5,0-3.7,1.5-4.1,2.6
	C849.2,384,848.7,388.4,847.9,393.8z M829.3,451.7c11,14.9,24,24,38,32c1,0.5,2.9,0.3,3.7-0.3c9.7-7.9,19.3-16.1,28.9-24.3
	c1.3-1.1,1.3-3.7,1.9-5.7c-1.8-0.6-3.7-1.6-5.5-1.6c-17.8-0.2-35.7-0.2-53.4-0.2C838.8,451.7,835,451.7,829.3,451.7L829.3,451.7z
	 M861.1,328.1c3.4,8.6,6.3,16.4,9.7,23.8c0.5,1.3,2.8,2.3,4.2,2.4c6.2,0.3,12.3,0.2,18.3,0.2c1.5,0,3.2-0.3,4.2-1.3
	c7.6-8.1,13-17.5,16.4-29C896,325.5,878.9,326.8,861.1,328.1L861.1,328.1z M770.2,394.3h47.4c1.8,0,4.7-0.5,5-1.5
	c1.9-4.7,3.1-9.6,4.9-15.6h-7c-12,0-24.2-0.2-36.2-0.2c-16.4,0-16.4,0-14.4,16.5C769.9,393.8,770.1,393.9,770.2,394.3L770.2,394.3z
	 M816.5,354h31.3c-1-2.6-1.6-4.4-2.4-6.3c-1.9-4.9-4.7-9.7-6-14.8c-0.8-3.4-2.4-4.4-5.4-4.4h-27.6c-1.1,0-2.4,0.6-3.4,1
	C807.7,337.8,811.9,345.6,816.5,354z M271.7,539.8c3.6,0.5,5.8,1.1,8.1,1.1c6.2,0.2,12.3,0,18.5,0c4.1,0,6,2.1,6.2,6
	c0.2,4.9,0,9.6,0,14.4c0,3.7-1.9,5.7-5.7,5.7c-9.7,0-19.6,0.2-29.4-0.3c-12.8-0.6-18.8-5.8-22.1-18.5c-0.3-1.5-1.1-2.8-1.6-4.4
	c-11.7,0-23.4,0.8-34.9-0.2c-14.4-1.1-28.7-4.7-41-13c-10.2-6.7-14.1-16.9-14.1-28.6c-0.2-56.5,0-112.7,0-169.2
	c0-14.8,7.3-25.5,20.1-32.3c20.6-10.7,43-12.2,65.4-9.7c12.5,1.3,25.3,4.2,37,8.8c14.1,5.5,21.1,17,20.9,32.9
	c-0.3,56.9-0.2,113.9,0,171c0,15.7-8.4,25.1-21.3,32c-1.1,0.6-2.4,1.1-3.6,1.8C274,537.5,273.7,538,271.7,539.8L271.7,539.8z
	 M208.9,416.8v82.9c0,5.5,0.8,11.2,6,14c7.8,4.2,16.4,4.9,24.3,1c6.7-3.2,7-10.4,7-17V342.8c0-3.9,0.2-7.6-0.2-11.5
	c-0.8-8.8-3.4-11.4-12.2-12.3c-3.9-0.5-7.9-0.3-12,0c-9.1,0.8-13.1,5.7-13.1,14.8C208.9,361.6,208.9,389.2,208.9,416.8L208.9,416.8z
	 M619.7,276.6c-7.3,0-14.6-0.2-21.9,0.2c-3.6,0.2-5.2-1.6-5.5-4.4c-2.4-22.5-17.7-30.8-37.5-33.4c-25.3-3.4-50.8-7-76.2-8.9
	c-29.4-2.3-58.9-3.2-88.4-3.9c-28.4-0.6-56.8-0.6-85,0.3c-28.1,1-56.1,3.2-84.2,5.5c-19.6,1.6-39.1,4.1-58.6,6.8
	c-6.7,1-13.3,3.2-19.8,5.5c-11.7,4.4-16.5,14.3-18.7,25.6c-1,5.2-2.8,7-8.1,7c-13.8-0.3-27.6-0.2-41.4,0c-3.9,0-5.8-1-5-5.2
	c1.5-8.4,2.6-17,4.5-25.3c6-24.8,21.3-40.4,46.4-46.1c27.7-6.3,55.6-10.4,84-12.7c21.6-1.8,43-3.7,64.6-5.5
	c7.8-0.6,15.7-1.1,23.5-1.3c33.7-0.5,67.5-1.5,101.2-1c25.3,0.3,50.5,2.3,75.8,4.2c28.1,2.3,56,4.5,83.9,8.3
	c18.7,2.6,37.1,6.7,55,12.2c17.7,5.4,27.1,20.1,32.4,36.8c3.1,9.7,4.1,20.1,5.8,30.3c0.6,3.7-1,5.2-4.9,5
	C634.3,276.5,627,276.6,619.7,276.6L619.7,276.6z"/>
<path class="st0" d="M96.2,558.3c6.3,0,12.7,0.5,19-0.2c6-0.5,8.1,1.9,8.9,7.5c1.6,11,6.8,20.3,17.2,24.8c7.8,3.4,16.4,5.5,24.8,6.7
	c22.9,3.1,45.9,6.2,68.9,8.1c23.2,1.9,46.6,2.9,69.9,3.6c26.8,0.8,53.7,1.1,80.5,1c22.1-0.2,44.1-0.5,66-2.3
	c35.4-3.1,70.7-6.8,105.9-11.5c17.5-2.3,31.8-9.4,34.7-32.1c0.5-3.9,2.3-5.7,6.8-5.5c14.1,0.3,28.4,0.2,42.7,0c3.7,0,5.5,1.3,4.9,5
	c-1.6,9.6-2.6,19.3-5.4,28.7c-6.5,22.7-20.8,38.1-44.6,42.7c-20.1,3.9-40.4,8.1-60.7,10.4c-32.6,3.6-65.4,6.7-98.3,8.1
	c-41.5,1.8-83.2,2.6-124.7,2.1c-31-0.3-62-2.9-92.8-5.7c-26.8-2.4-53.4-6.3-80-10.2c-10.2-1.5-20.6-4.4-30.5-7.6
	c-18.2-6-28.9-19.8-34.2-37.5c-3.1-9.9-4.1-20.6-5.8-30.8c-0.6-3.4,0.6-5,4.4-4.9C81.3,558.4,88.7,558.3,96.2,558.3L96.2,558.3z
	 M490.6,383.4c2.6-8.8,5.2-17.4,7.9-26.1c5.4-17.7,10.9-35.4,16.1-53.2c1.6-5.4,4.2-7.6,10.2-7.3c12.7,0.5,25.3,0.2,38,0.2
	c6.2,0,7.8,2.4,5.7,8.3c-12.3,34.2-24.8,68.5-37.1,102.7c-4.9,13.5-9.7,26.9-14.4,40.4c-0.6,1.9-0.6,4.1-0.6,6.2
	c0,25.5-0.2,50.9,0.2,76.6c0,6-2.3,7.9-7.6,7.9c-12.7,0-25.3-0.2-38,0c-5.2,0-7.1-2.3-7-7.3c0.2-24.2-0.3-48.3,0.2-72.5
	c0.2-9.9-3.6-18.3-6.7-27.1c-15.2-42.7-30.7-85.2-46.1-127.7c-1.9-5.2-0.3-7.5,5.4-7.6c13.8-0.2,27.6,0,41.4-0.2
	c4.1,0,5.7,2.1,6.8,5.7c7.6,25.6,15.4,51.1,23.2,76.7c0.5,1.5,1,2.9,1.5,4.2C489.7,383.4,490.2,383.4,490.6,383.4z M387.4,417.8
	v113.4c0,6.2-1.5,7.8-7.8,7.8c-12.5,0.2-25,0-37.5,0c-6.3,0-8.1-1.8-8.1-8.3v-87V305.7c0-7.9,0.8-8.9,8.9-8.9
	c12.5,0,25,0.2,37.5-0.2c5.2-0.2,7,1.9,7,7V417.8L387.4,417.8z M595.4,417.5V305.4c0-7.9,0.5-8.3,8.6-8.3c12.5,0,25,0.2,37.3,0
	c5-0.2,6.8,1.6,6.7,6.7c-0.2,75.8,0,151.5,0,227.1c0,7.1-1.1,8.3-8.3,8.3c-11.5,0-23,0.2-34.6,0.2c-9.6,0-9.7-0.3-9.7-9.6V417.5
	L595.4,417.5z M1403.9,402H1303c-3.2,0-6.5-0.3-9.7-1c-5-1.1-8.9-6.2-8.4-10.9c0.5-5.4,4.2-7.9,9.1-9.1c1.9-0.5,4.2-0.3,6.3-0.3
	h130.1c1.3,0,2.8,0,4.1,0.2c7.1,0.6,13.1,5,14.3,10.5c1.3,6.5-2.1,11.2-7.1,14.6c-15.9,10.7-32.1,20.9-47.7,32
	c-21.1,15.2-41.7,31.1-62.5,46.9c-3.4,2.6-6.3,6.2-8.9,9.7c-3.2,4.4-2.4,7.9,2.8,9.4c7.5,2.1,15.2,4.2,22.9,4.5
	c26.3,0.8,52.6,0.6,78.8,1c9.2,0,18.3,0,27.6,0.2c12.3,0,16.7-4.5,16.9-17c0.2-5.4,0.5-10.7,1.5-15.9c1-5,4.2-8.1,9.6-8.4
	c5.7-0.3,9.6,2.9,10.7,7.8c1.3,5.7,2.3,11.8,1.5,17.5c-1.1,8.1-2.9,16.5-6.5,24c-5.2,10.5-15.6,14.4-26.8,14.4
	c-34.4,0.2-68.6,0.6-103-0.3c-14.6-0.3-29.2-3.4-43.5-6.5c-5.4-1.1-10.7-5-14.9-8.9c-8.1-7.5-9.2-19.3-2.4-28.7
	c9.2-12.8,20.9-23.2,33.4-32.4c9.4-7,18.3-14.4,27.9-21.1c13.1-9.2,26.6-18,40.1-26.9c1.8-1.3,3.6-2.6,5.5-3.7
	C1404.2,402.9,1404,402.5,1403.9,402L1403.9,402z M1180.2,418.1h-159.8c-1.9,0-3.9,0.2-5.7-0.2c-6.8-1.3-9.7-4.7-9.6-10.7
	c0.3-6.3,4.4-10.7,10.7-11.2c3.2-0.3,6.5,0,9.7,0c67.2,0,134.3,0,201.5-0.2c7.6,0,13.1,4.7,13.1,11.4c-0.2,6.3-5.5,11-12.8,11h-24.5
	c-0.2,2.6-0.3,4.5-0.3,6.7c0,27.3-0.2,54.5,0,81.8c0.2,20-10.7,26.9-26.4,28.9c-16.4,1.9-32.8-0.6-48.7-4.5c-4.7-1.1-7-4.9-6.8-9.4
	c0.2-6,5.2-11.5,10.7-11.5c3.6,0,7.1,1.3,10.7,1.6c8.8,1,17.5,2.4,26.3,2.6c9.6,0.2,12.2-3.2,12.2-12.5v-76.6
	C1180.2,423.1,1180.2,421,1180.2,418.1L1180.2,418.1z M69.3,453.6v-75.3c0-7.1,0.8-7.9,7.9-7.9c12.8,0,25.6,0.2,38.6,0
	c5.2,0,7,1.9,7,7.1c-0.2,51.3-0.2,102.4,0,153.6c0,5-1.9,7.8-7,7.9c-13.5,0.2-26.8,0.3-40.2,0.2c-4.7,0-6.3-3.1-6.3-7.8
	C69.3,531.5,69.3,453.6,69.3,453.6z M1127.8,316.5h83.9c8.3,0,11.5,3.1,11.5,10.4c0,8.9-2.6,11.8-11.2,11.8h-83.4
	c-3.4,0-6.2,0-8.1,3.7c-10.5,19.6-28.1,30.8-48.3,37.8c-17,5.8-34.7,8.8-52.7,9.2c-8.3,0.2-12.8-2.8-13.1-8.8
	c-0.3-7.5,4.1-12,12.2-12.8c17.8-1.8,36-2.6,52.4-10.2c8.3-3.9,15.4-10.2,23-15.6c0.5-0.3,0.5-1.6,0.8-3.6H1027
	c-7.3,0-11.2-2.9-12-8.1c-1.5-9.2,2.8-14,12.3-14.1c23.5,0,47.2-0.2,70.7,0c4.1,0,6-1,6.2-5.2c0.2-2.1,0.8-4.1,1.3-6.2
	c1.9-7.5,6.8-10.7,14.4-9.4c6.2,1.1,8.9,5.4,8.3,12.8C1128.4,311,1128.1,313.5,1127.8,316.5L1127.8,316.5z M1361.4,342.2v22.1
	c0,6.8-3.2,10.1-10.2,10.2c-6.5,0.2-10.7-3.6-10.9-9.9c-0.2-7.3,0-14.6,0-22.4h-58.4c-5.4,0-8.9-2.9-9.6-7.8c-1-7,1.1-10.9,6.8-12.5
	c2.4-0.6,4.9-1,7.3-1h54c0-5.4-0.3-10.5,0-15.6c0.6-7.8,4.1-10.2,12.5-9.9c6.7,0.3,9.4,3.4,9.4,10.9v14.4h18.3
	c12.8,0,25.6-0.2,38.6,0c3.4,0,4.9-1,4.7-4.5c-0.2-4.1-0.2-8.1,0-12c0.2-6,3.9-8.9,11-8.9c6.5,0,10.2,3.1,10.4,8.9
	c0.2,3.6,0.3,7.3,0,10.9c-0.5,4.7,1.6,5.8,6,5.7c15.7-0.2,31.5-0.2,47.2,0c4.7,0,9.2,1.6,10.2,6.5c0.6,3.6,0.2,7.9-1.6,11
	c-1.3,2.1-5.4,3.6-8.3,3.6c-15.9,0.3-31.8,0.3-47.7,0c-5.2-0.2-6.8,1.6-6.5,6.5c0.3,5.4,0.2,10.7,0.2,16.1c0,5.8-4.2,9.7-10.7,9.7
	s-9.7-3.2-9.7-9.2c0-6.2,0.2-12.3-0.3-18.3c-0.2-1.6-2.3-4.4-3.4-4.4H1361.4z"/>
<path class="st0" d="M1092.9,502.6c-16.5,0-32.9-0.5-49.5,0.2c-11,0.3-17.7-7-16.9-17.2c1-13.3,0.3-26.8,0.5-40.2
	c0.2-7.1,5.5-12.7,12.8-12.7c35.5-0.2,70.9-0.2,106.4,0.2c8.3,0,13.6,6.2,13.6,14.6c0,12.8,0,25.6,0.2,38.6
	c0.2,10.9-4.9,16.5-15.9,16.5C1127,502.8,1109.9,502.6,1092.9,502.6z M1093.2,452.7c-12.7,0-25.3,0-38-0.2c-4.7,0-6.8,2.1-7,6.5
	c-0.2,6-0.2,11.8,0,17.8c0.2,4.1,2.4,6.3,6.7,6.3h76.4c4.4,0,6.2-2.1,6-6.5c-0.2-5.5-0.2-11.2,0.2-16.7c0.2-5.5-2.1-7.3-7.6-7.3
	C1117.7,452.8,1105.5,452.7,1093.2,452.7L1093.2,452.7z M69.3,323.5c0-6.7,0.2-13.5,0-20.1c-0.2-4.4,1.8-6.5,6.2-6.5h41.4
	c4.1,0,5.7,2.1,5.7,5.7c0.2,14,0,28.1,0,42c0,4.1-2.9,5.4-6.2,5.5c-13.8,0.3-27.6,0.3-41.4,0.2c-3.6,0-5.8-2.3-5.8-6.5
	C69.4,337,69.3,330.2,69.3,323.5z M1139.3,340.6c7.8,2.1,18.2,3.9,28.1,7.5c18.7,6.8,36.8,14.6,55.2,21.9c1.5,0.5,2.8,1.5,4.1,2.3
	c5.7,4.1,7.8,11,5,15.9c-2.9,5.2-9.4,6-16.2,3.1c-11.4-5-22.5-10.2-34.2-14.4c-13.6-4.9-27.6-8.6-41.4-12.8
	c-2.8-0.8-5.5-1.6-7.9-2.9c-4.7-2.3-7.3-6.3-6.5-11.7C1126,344.1,1131,340.6,1139.3,340.6L1139.3,340.6z"/>
</svg>
