<?xml version="1.0" encoding="utf-8"?>
<!-- Generator: Adobe Illustrator 21.0.0, SVG Export Plug-In . SVG Version: 6.00 Build 0)  -->
<svg version="1.1" id="图层_1" xmlns="http://www.w3.org/2000/svg" xmlns:xlink="http://www.w3.org/1999/xlink" x="0px" y="0px"
	 viewBox="0 0 1559.1 850.4" style="enable-background:new 0 0 1559.1 850.4;" xml:space="preserve">
<style type="text/css">
	.st0{fill:#E00000;}
	.st1{fill:#FFFFFF;}
</style>
<path class="st0" d="M326.4,409.5v93c0,18.6-15.2,37.3-30.2,44.9c-8.4,4.2-17.4,5.4-26.8,5.4c-58.9-0.2-118-0.2-176.9-0.2
	c-29.2,0-53.5-26.7-53.3-53.3c0.3-60.8,0.2-121.5,0.2-182.4c0-19.7,14-38.5,31.2-46.6c7.9-3.7,16.2-5.2,25-5.2
	c59.6,0.2,119.1,0.2,178.7,0.2c20.4,0,38.8,13.8,47.3,31.1c3.9,7.9,5.2,16.2,5.2,25C326.2,350.8,326.4,380.2,326.4,409.5
	L326.4,409.5z M220.6,377.5c0.3,0,1.4,0.2,2.2,0.2c0.8,0.2,1.7,0.2,2.4,0.7c14.3,7.6,25.1,19.1,28.5,34.9
	c4.1,19.4,0.2,37.6-13.2,53.2c-21.4,25-61.1,31.1-90.1,15.9c-31.6-16.4-50.6-58.2-36.8-94.3c7.1-18.6,18.1-33.4,36.1-42.5
	c4.7-2.4,9.8-4.6,14.2-7.6c5.9-4.1,6.9-10.6,3.4-16.5c-3-5.2-10.1-7.6-15.7-5.4c-32.2,12.7-53.5,35.1-64.3,68.3
	c-7.9,24.6-5.1,48.1,4.9,71.2c7.1,16.2,17.9,29.5,32.2,40.5c11.8,8.9,24.6,15,38.6,18.2c22.4,5.1,44.4,2,65.5-7.4
	c37.5-16.7,62.8-59.9,49.3-103.5c-7.3-23.3-22.6-39.2-44.6-48.8c-7.1-3-14.9-4.6-23-6.8c-0.7-5.2-1.9-11-2.2-16.7
	c-0.3-7.3,6.8-11.6,13.3-8.6c3.4,1.5,6.6,3.7,9.8,5.6c8.9,5.2,17.2,3.2,20.6-5.4c1.9-4.9-0.3-12.5-5.9-15.9
	c-6.1-3.7-12.8-6.4-19.4-9.3c-15.2-6.8-34.9,4.2-42.7,17.9c-5.2,9.1-3.9,19.1-1.4,28.7c0.8,3.5,3.4,7.4-1.9,9.8
	c-2.5,1.2-5.1,2.2-7.6,3.4c-22.8,9.8-36.5,39.8-29.9,64.5c5.7,21.3,31.2,39.2,53.3,31.6c14-4.7,32.1-21.6,30-39.7
	C225.5,401.8,222.8,389.8,220.6,377.5L220.6,377.5z"/>
<path class="st1" d="M395.8,509.6V312.8c9.5,5.7,19.6,3.9,29.2,3.9c45.7,0.3,91.6,0,137.4,0.3c6.9,0,14,1.7,20.6,3.7
	c8.4,2.5,11.3,9.8,11.8,17.9c0.5,7.6,0.2,15.4,0.2,23.1c0,39.5-0.3,79,0.2,118.6c0.3,22.8-8.6,27-26.8,29.2
	c-9.8,1.2-19.7,0.2-29.5,0.2c-1.9-7.6,0.3-10.3,7.4-11c5.7-0.5,11.6-1.7,17-3.4c3.9-1.2,6.6-4.1,6.6-9.1c-0.2-47.8,0-95.7-0.2-143.4
	c0-7.1-5.4-11.8-13.8-11.8c-16.9-0.2-33.6,0-50.5,0c-26.2,0-52.3,0.2-78.5-0.2c-5.1,0-6.6,1.5-6.6,6.6c0.2,55.4,0,110.7,0.3,166.1
	c0,5.6-1.5,7.1-6.9,6.6C407.9,509.3,402,509.6,395.8,509.6z M1411.9,350.3c7.8,0,15-0.2,22.1,0.2c1,0,2.7,2.5,2.7,4.1
	c0.2,11,0.3,21.9,0,32.9c-0.2,5.2,1.2,7.1,6.8,6.9c20.9-0.3,41.7-0.2,62.6-0.2c8.8,0,12.8,4.1,13.3,13.7c-1.4,0.2-2.7,0.3-3.9,0.3
	c-24.3,0-48.6,0.2-72.9,0c-4.6,0-5.9,1.5-5.9,5.9c0.2,23.5,0.2,47.1,0.2,70.5c0,17.4-5.2,23.6-22.3,25c-11.1,0.8-22.3,0.2-33.4,0.2
	c1.7-9.3,3.5-10.5,12.7-11.3c4.6-0.3,9.5-1.4,13.3-3.5c2.5-1.5,4.4-6.1,4.4-9.1c0.3-24.3,0-48.6,0.2-72.9c0-4.7-2.9-4.6-6.1-4.6
	c-17,0-34.1,0.2-51.1-0.2c-5.1-0.2-10.6-1-15.2-3.2c-7.6-3.4-10.6-11-10.3-18.6c1.4-24,3.5-47.9,5.6-72.4h35.3
	c45.2-0.3,90.5-0.5,135.5-1c4.2,0,4.9,2,4.9,5.1c-0.2,3.2,0.7,7.1-4.9,7.3l-115.4,2.5c-8.8,0.2-17.4,0.2-26.2,0
	c-3.2,0-4.7,0.8-5.1,4.4c-1,17.2-2.4,34.3-3.7,51.5c-0.7,8.8,1,10.5,9.6,10.6c13.3,0,26.8-0.2,40.2,0.2c5.4,0.2,6.9-1.9,6.8-7.1
	C1411.7,375.1,1411.9,363,1411.9,350.3L1411.9,350.3z M1112.1,405.5c7.3,0.5,13.7,1.2,20.1,1.2c38.1,0.2,76.3,0,114.3,0
	c6.9,0,13.8,0.3,20.6,0.8c10.8,0.7,18.4,8.6,18.6,21.4c0.5,25.3,0.2,50.6,0.3,75.9c0,4.4-2.5,4.7-5.9,4.7c-21.1-0.2-42.2,0-63.3,0
	c-25.8,0-51.5,0.2-77.3-0.2c-6.4,0-12.8-1.2-19.2-2.2c-4.6-0.8-8.4-7.9-8.4-15.4v-84.6C1112,406.7,1112.1,405.8,1112.1,405.5
	L1112.1,405.5z M1198.9,464.7c-18.7,0-37.3,0.2-56,0c-4.4,0-6.2,1.4-5.9,5.9c0.3,4.2,0,8.4,0.2,12.8c0,8.1,3.4,12.2,11.5,12.2
	c35.4,0.2,70.9,0.2,106.5,0.2c3.5,0,5.1-1.4,4.9-5.1c-0.3-6.2-0.5-12.7,0-18.9c0.5-5.6-1.2-7.4-6.9-7.3
	C1235,464.9,1217,464.7,1198.9,464.7L1198.9,464.7z M1198.4,450.4c18.4,0,36.8-0.2,55.4,0.2c4.4,0,6.4-1.2,6.1-5.7
	c-0.3-4.9,0-9.8,0-14.5c0-8.4-1.4-10.3-9.8-10.3c-35.6-0.2-71.2-0.2-106.8-0.2c-4.4,0-6.2,2-6.1,6.4c0.2,5.9,0.3,11.8,0,17.6
	c-0.5,5.4,1.5,6.9,6.9,6.9C1161.9,450.2,1180.2,450.4,1198.4,450.4L1198.4,450.4z M621.2,488c14.2-10.3,28.5-20.3,42.4-31.1
	c14-11,25.5-24.3,36.8-40.2c-12,0-22.1-0.2-32.1,0.2c-1.5,0-3,2.4-4.4,3.9c-6.9,7.9-13.3,16.9-23.6,20.8c-6.1,2.2-12.7,2.9-20.8,4.4
	c8.3-8.3,16.4-14,21.3-21.9s6.6-17.7,9.6-27.2c7.1,7.9,16.9,6.6,26.2,6.6c42,0.2,83.9,0.5,125.9-0.2c17.9-0.3,28.4,10.3,31.6,26.7
	c3,16,2.4,32.1-1,47.6c-3.7,16.5-13.8,27.7-34.6,29.7c-12.5,1.4-24.8,2-37.1,3c-1.9-9.6-0.3-11.6,7.8-11.6
	c13.7-0.2,26.2-3.2,34.4-15c2.9-4.2,5.1-9.8,5.4-14.9c1-12.2,1-24.3,1-36.5c0-10-2.9-13.3-11.8-15.5c-3.5-0.8-7.3-0.7-10.8-0.2
	c-1.7,0.2-3.9,2-4.4,3.4c-3.9,15.4-12.5,28-22.8,39.7c-17.2,19.6-38.1,34.4-62.4,44c-8.9,3.5-18.7,4.6-28,6.9c-0.3-1-0.7-1.9-1-2.9
	c4.1-2.2,8.1-4.6,12.3-6.8c33.8-18.1,58.2-44.9,75.1-79c2-4.1,1.9-6.1-3.4-5.9c-7.1,0.2-14.2-0.2-21.3,0.2c-2,0.2-5.1,1.4-5.9,3
	c-11.3,20.1-28.7,33.9-46.9,46.9c-12.2,8.6-24.8,16.7-39.7,20.3c-5.7,1.4-11.6,1.7-17.4,2.4C621.4,488.9,621.2,488.5,621.2,488
	L621.2,488z M1025.4,436.5c8.8,0,16.4-0.2,24.1,0.2c1.2,0,2.9,1.5,3.2,2.7c3.7,12.7,7.8,25.3,10.8,38.1c2.2,9.6-1.4,25-10.8,28.5
	c-5.2,1.9-10.8,3.5-16.2,3.5c-46.1,0.3-92,0.3-138,0c-10.8-0.2-22.8-1.9-26.7-14.3c-2-6.6-2.2-14.5-0.7-21.3
	c3.2-13.5,8.3-26.5,12.7-39.7c3.2-9.5,6.6-18.7,10-28.2c2.9-7.8,1.9-9.8-6.4-9.8c-5.9,0-11.8,0.2-17.6,0c-8.6-0.2-12-3.5-12.5-12.8
	c1-0.2,1.9-0.3,2.9-0.3H1056c9.8,0,12.3,2.5,13.2,12.7c-2.2,0.2-4.2,0.5-6.4,0.5c-44.7,0-89.6,0.2-134.3-0.2c-5.6,0-7.8,2.7-9.1,7.1
	c-5.6,17-10.8,34.3-16.4,51.3c-2,6.4-4.7,12.8-6.9,19.1c-4.4,12.2,2.4,22.1,15.5,22.1c38,0.2,75.8,0,113.7,0.2
	c12.2,0,16.9-5.9,13.7-17.7c-3.4-12.5-7.3-25-11-37.3C1027.4,439.6,1026.6,438.7,1025.4,436.5L1025.4,436.5z M819.9,393.2
	c-47.6,0-94.3,0-141.1-0.2c-5.2,0-10.6-0.5-15.4-2.4c-6.8-2.7-9.6-9.5-9.8-16c-0.7-20.3-0.2-40.5-0.2-60.8c0-0.3,0.3-0.7-0.2,0.2
	c5.7,0.8,11,2.2,16.2,2.2c38.6,0.3,77.3,0.2,116.1,0.7c7.6,0.2,15.4,2,23,3.9c7.9,1.9,11,8.9,11.3,15.5
	C820.4,355.2,819.9,373.9,819.9,393.2z M737,360.3h-52.8c-1.9,0-4.4,0.3-5.4,1.5c-3,3.9-0.3,13.8,4.4,15.9c3.2,1.4,6.9,2.2,10.5,2.2
	c29.2,0.2,58.4,0.2,87.6,0.2c14.7,0,14.5,0,13.8-14.3c-0.2-4.2-1.5-5.6-5.7-5.4C771.8,360.4,754.4,360.3,737,360.3L737,360.3z
	 M736.1,346.9c17.6,0,35.3,0,52.8-0.2c1.9,0,4.4-0.5,5.2-1.7c3.9-5.4-0.5-14.2-7.4-14.3c-34.8-0.2-69.5-0.2-104.5,0
	c-1.5,0-3.5,2.4-4.2,4.1c-0.7,1.5,0,3.5-0.2,5.4c-0.5,4.9,1.4,6.8,6.6,6.6C701.7,346.8,718.9,346.9,736.1,346.9L736.1,346.9z
	 M1091.6,383h29.7c6.9,0,6.4,0.2,4.7-6.4c-1.5-6.2-1.7-12.8-2.4-19.7h26.3v11.6c0.2,9.6,5.1,14.5,14.3,14.5h69.2
	c8.8,0,14.7-5.7,14.9-14.5v-11.8h26.3c-1.2,7.1-2.2,13.7-3.5,20.3c-0.8,3.9-0.8,6.4,4.2,6.2c6.4-0.2,13,0,19.4,0
	c8.6,0.2,11.5,3.7,10.1,13h-198.5C1094.9,396.2,1093.8,395.2,1091.6,383L1091.6,383z"/>
<path class="st1" d="M430.9,353.2c6.2,0,12,0.3,17.6-0.2c3.7-0.2,4.1,1,4.6,4.4c1.4,12.7,3.4,25.1,5.2,37.6c0.2,0.8,1,1.5,2.7,4.2
	c4.6-15.9,6.9-30.5,7.6-45.7h22.6c-1.2,5.7-1.9,11.5-3.7,16.9c-5.7,16.5-12.7,32.7-17.9,49.3c-1.5,4.7,0,11.3,2.4,15.9
	c4.7,9.5,11.3,17.9,16.2,27.2c2.4,4.4,2.4,10.1,2.5,15.5c-12.7-10.6-22.3-23.1-30.2-38.1c-10.5,13.5-20.4,26.5-30.5,39.5
	c-0.7-0.3-1.5-0.8-2.2-1.2c0.3-5.2-1-10.5,2.4-15.9c7.3-11.3,13.8-22.8,20.3-34.6c1-1.9,0.8-5.1,0.2-7.3c-3.9-12-8.6-23.6-12.3-35.6
	c-2.9-9.1-4.9-18.6-7.3-27.8L430.9,353.2L430.9,353.2z M560.6,479.2c-4.1-4.6-8.6-8.8-12.3-13.7c-5.2-6.9-9.8-14.2-14.9-21.3
	c-1-1.4-2.4-2.4-3.7-3.5c-0.8,1.2-1.9,2.4-2.7,3.5c-7.3,12.5-16,24.1-27.3,34.6c-1.9-5.9-1.9-11,1.2-15.9
	c6.8-11,13.2-22.3,19.7-33.2c3.5-5.9-0.8-10.5-2.5-15.4c-4.2-12.2-8.8-24.3-13-36.5c-2.5-7.8-4.4-15.7-6.9-24.6
	c7.8,0,14.3-0.2,20.8,0.2c0.8,0,2.2,2.5,2.5,4.1c2,11.6,3.5,23.5,5.6,35.3c0.3,1.7,1.9,3.2,2.9,4.7c0.8-1.7,2.4-3.2,2.5-4.9
	c1.9-13,3.7-25.8,5.4-39h21.6c-5.2,23.3-10.6,45.9-20.8,67.2c-2.7,5.6,1.4,9.8,3.5,14c4.6,8.8,9.6,17.4,15.5,25.5
	C562.2,465.7,563,471.6,560.6,479.2L560.6,479.2z M1098.1,326.8c1.5-0.2,3-0.3,4.6-0.3c25.3,0,50.6-0.2,75.9,0.2
	c6.1,0,8.8-1.5,7.8-7.8c-0.3-2.4,0-4.7,0-7.9c7.9,0,15.4-0.2,22.8,0.2c0.8,0,2.2,2,2.4,3.2c0.3,2,0.2,4.1,0,6.1
	c-0.5,4.7,1.5,6.4,6.2,6.2c23.5-0.2,46.9-0.2,70.5-0.2c8.9,0,12.2,3.7,11.1,13.3h-189.2C1100.7,339.3,1098.8,337.3,1098.1,326.8
	L1098.1,326.8z M1063.4,333.4h-5.2c-60.9,0-121.8,0-182.9,0.2c-6.2,0-9.3-1.9-11.1-8.1c-1.5-5.4,0.5-5.4,4.6-5.4h179.9
	C1059.7,320.4,1060.3,321.1,1063.4,333.4z M1324.6,501.3c3.5-7.9,7.9-15.5,10.8-23.6c4.7-14.2,8.4-28.5,12.7-42.9
	c0.5-1.5,1.5-4.2,2.4-4.2c7.9-0.3,15.9-0.2,24.3-0.2c-6.8,31.6-18.6,58.1-48.1,72.4C1325.8,502.4,1325.1,501.9,1324.6,501.3
	L1324.6,501.3z M1522.6,501.7c-18.7,0.7-49.3-44.2-48.8-71.6h24.6C1503.2,454.8,1509.4,479.4,1522.6,501.7z"/>
<path class="st1" d="M220.6,377.5c2.2,12.5,4.9,24.3,6.2,36.5c2,18.1-16,34.9-30,39.7c-22.1,7.6-47.6-10.5-53.3-31.6
	c-6.6-24.6,7.1-54.7,29.9-64.5c2.5-1.2,5.1-2.2,7.6-3.4c5.2-2.4,2.7-6.2,1.9-9.8c-2.4-9.8-3.7-19.6,1.4-28.7
	c7.6-13.7,27.3-24.5,42.7-17.9c6.6,2.9,13.3,5.6,19.4,9.3c5.6,3.4,7.8,11,5.9,15.9c-3.2,8.4-11.6,10.6-20.6,5.4
	c-3.2-1.9-6.4-4.1-9.8-5.6c-6.6-3-13.7,1.4-13.3,8.6c0.2,5.7,1.4,11.5,2.2,16.7c8.1,2.4,15.9,3.7,23,6.8
	c21.8,9.6,37.3,25.3,44.6,48.8c13.5,43.5-11.8,86.9-49.3,103.5c-21.1,9.5-43,12.5-65.5,7.4c-14-3.2-26.8-9.3-38.6-18.2
	c-14.3-11-25.1-24.1-32.2-40.5c-10.1-23-12.8-46.4-4.9-71.2c10.6-33.2,31.9-55.9,64.3-68.3c5.7-2.2,12.7,0.2,15.7,5.4
	c3.5,5.9,2.4,12.5-3.4,16.5c-4.4,3-9.5,5.1-14.2,7.6c-17.9,9.1-29,24-36.1,42.5c-13.8,36.1,5.2,78,36.8,94.3
	c29,15.2,68.7,9.1,90.1-15.9c13.3-15.5,17.2-33.9,13.2-53.2c-3.4-15.9-14.2-27.2-28.5-34.9c-0.7-0.3-1.5-0.5-2.4-0.7
	C221.9,377.5,220.9,377.5,220.6,377.5L220.6,377.5z M193.1,377.5c-21.3,4.9-30.9,26.5-21.6,43.9c3.2,6.1,11.1,9.5,16.9,7.8
	c7.9-2.4,13.5-8.1,12.3-15.5C198.8,401.4,195.6,389.5,193.1,377.5z"/>
<path class="st0" d="M193.1,377.5c2.5,12,5.7,24,7.6,36.1c1.2,7.4-4.4,13.2-12.3,15.5c-5.7,1.7-13.7-1.7-16.9-7.8
	C162.2,403.8,171.6,382.2,193.1,377.5z"/>
</svg>
