<?xml version="1.0" encoding="utf-8"?>
<!-- Generator: Adobe Illustrator 21.0.0, SVG Export Plug-In . SVG Version: 6.00 Build 0)  -->
<svg version="1.1" id="图层_1" xmlns="http://www.w3.org/2000/svg" xmlns:xlink="http://www.w3.org/1999/xlink" x="0px" y="0px"
	 viewBox="0 0 1559.1 850.4" style="enable-background:new 0 0 1559.1 850.4;" xml:space="preserve">
<style type="text/css">
	.st0{fill:#FCFCFC;}
	.st1{fill:url(#SVGID_1_);}
	.st2{fill:url(#SVGID_2_);}
	.st3{fill:url(#SVGID_3_);}
	.st4{fill:url(#SVGID_4_);}
</style>
<path class="st0" d="M777.3,522.7l26.1-124c2-10.4-4-20.7-16.2-20.7H757l-4,17.5h23.5c5.3,0,6.3,3.3,5.3,7.6l-25.6,120.7
	c-3,14.2,5.1,18.5,20.2,18.5h34.4l4.8-15.7h-35.2C778.3,526.5,776.5,525.2,777.3,522.7 M680.4,494.4H557.9l-4,14.4h122.4
	L680.4,494.4z M744.6,309.2h-21.8c-9.6,12.4-28.3,32.1-39.7,36.9h-13.9c3-4.8,19-36.9,19-36.9h-22.5L647,345.1
	c-13.2-8.9-19-24-23.8-35.9h-24c3,8.9,8.6,27.1,19.2,36.2h-33.1l-4.3,18h54.1c-3.3,5.6-7.1,10.6-11.4,15.4h-54.4L565,396h43.3
	c-13.9,14.4-33.1,25.8-48.1,25.8l-4.3,19.5c0,0,23.3-4.3,34.7-10.1l-6.6,30.6c-2,9.1,0.3,15.9,9.6,15.9h90.8c7.3,0,9.4,5.1,7.6,12.6
	l-5.3,20c-2.8,9.6-7.3,14.9-15.4,14.9h-81.2l-5.6,16.4h83.2c19,0,32.4-1.8,37.4-22.8l10.1-45c1.5-6.6-4.6-12.1-10.4-12.1l5.8-29.1
	c4.8,3.8,10.4,6.6,16.2,8.6l6.6-13.9c-12.1-5.8-26.1-18.5-29.9-30.9h34.7l4.3-18h-93.1l9.6-15.2h76.4l4-17.5H713
	C724.9,334.8,735.5,322.4,744.6,309.2 M690,443.8l-3.5,16.7h-81.7l6.3-28.1h70.6C693.3,432.7,690.5,440.8,690,443.8 M682.1,396.7
	c2.3,6.6,5.6,12.6,10.1,18h-75.4c6.6-5.3,12.6-11.4,18-18H682.1z M548.1,307.4c-4.8,0-15.2,0.5-20,3.3c0-1,0-2,0.3-3h-20L462,516.4
	c-1.3,5.8-3,7.3-4.6,7.3h-9.6l-4,18h19c4.3,0,14.7-3,18.2-18.7l13.2-60.7H523l-11.9,55.1c-0.8,3.5-1.3,6.6-3.5,6.6h-13.2l-3.8,18
	h16.9c3.8,0,17.7,1.5,21.8-18l43-195.8C575.6,311.7,559.7,307.4,548.1,307.4 M527.1,443.3h-28.8l10.9-50.6H538L527.1,443.3z
	 M551.6,331l-9.6,44.8h-28.8L523,330c3.3-3,13.4-4.3,16.2-4.3C541.7,325.7,552.4,326.7,551.6,331 M939.2,409.9h-51.1l15.7-69.8
	h-20.5l-15.7,70.1H815l-4.3,17.5h52.6l-24.8,114.1h21l25-114.9h50.3L939.2,409.9z M800.3,359l15.9-8.1c-6.3-8.1-12.4-16.4-18-25.3
	c-3.8-5.8-6.8-11.9-9.6-18.2h-20.2c0,0,7.6,15.2,11.1,21.3C783.1,334.8,800.3,359,800.3,359 M946.5,520.2l36.7-171.8
	c2.5-16.4,7.1-34.9-27.3-34.9h-104l-4,16.9h94.6c20.7,0,21.3,7.6,18,22.5l-36.7,171.3c-1.8,10.4,0.8,17.5,18.2,17.5
	c1,0,38.2-0.5,42,0l4.6-16.9h-37.4C947.8,524.7,945.5,524.2,946.5,520.2 M1295.9,414.2l0.8-3.8H1277l-0.8,2.3
	c-4.8,16.2-12.9,31.1-23.5,44.3c-4.6,6.1-9.9,11.6-15.4,16.7l-0.8,0.8l-4.3,26.1l5.8-3.5C1238.2,496.7,1283,469.6,1295.9,414.2
	 M1068.7,335.8l6.3-28.6h-18.2l-6.8,31.1h18.2L1068.7,335.8z M1108.9,462.5l0.5-2.3l27.1-120.9c4.8-5.6,11.9-8.6,19.2-8.6h45
	c3-0.3,6.1,0.5,8.6,2c1.8,1.3,2.5,3.5,2.3,5.6c0,1.8-0.3,3.3-0.8,5.1L1184,462.5h20l26.8-120.9c0.8-2.5,1-5.1,1-7.6
	c0.3-6.1-2.8-11.6-8.1-14.9c-5.3-3.3-12.4-4.6-21.5-4.6h-47.1c-6.1,0-11.4,0.3-15.4,2l-0.3-2.3h-18.2l-32.6,148.2L1108.9,462.5z
	 M1155,520.9c0-0.5,0-1,0.3-1.5l17.2-89.8h-8.3l17.2-85.8h-20.5l-17.2,88.3c-3,8.3-6.8,16.4-11.1,24c-7.6,13.7-19.2,30.4-35.2,42.5
	c-10.9,8.6-22.8,15.7-35.2,21.5c-3,1.3-6.1,2.5-9.4,3.5l-3,0.8l-1.8,0.3l-5.3,18.5l4.8-0.8c0.3,0,58.7-9.1,94.9-61.7l-8.1,39.5
	c-0.5,2.5-0.8,4.8-0.8,7.3c-0.3,4,1.3,8.1,4.3,10.9c3.5,2.5,8.1,3.8,12.4,3.5h65.8l0.5-2.3l3.3-14.7h-57.9
	C1156,524.7,1155,523.7,1155,520.9 M1465.4,522.2c-7.3-6.6-23.5-23.5-34.9-54.4l-0.8-2h-2.8l16.7-75.1h-20l-16.4,72.9
	c-1.5,4.3-3.5,8.6-5.8,12.4c-6.3,10.4-14.4,19.5-23.8,26.8s-19.7,13.2-30.9,16.9c-4.3,1.5-8.6,2.5-13.2,3.3l-2,0.3l-5.3,18.7
	l4.3-0.3c0.3,0,56.4-2.5,87.3-54.6c21.5,45,42.2,53.9,43.3,54.1l2.5,1l8.3-15.4l-2.3-1.5C1469.1,525.5,1467.9,524.5,1465.4,522.2
	 M1066.2,440.8l1,0.8l20.7-0.3l-3.5-4.8c0,0-2.8-4-6.6-10.1c-4.3-7.1-7.6-14.4-10.1-22.3l-0.8-2.3l-6.3,0.3l25-28.1
	c0-0.3,10.4-9.1,10.6-18.7c0-3.5-1.8-6.6-4.8-8.3c-4.3-2-9.4-3-14.2-2.8h-67.8l-3.3,16.9h65.5l-75.1,81l-8.1,33.6l44.5-46l-25,111.8
	h20.2l0.5-2.3l25.8-117.6C1060.3,435.4,1065.9,440.5,1066.2,440.8 M1391,315.5l-3.3,15.9h53.6c-7.3,14.7-15.7,26.6-19.5,29.6
	c-4,1-8.1,2.3-12.1,3.8l-0.3-2.8h-18.2l-27.3,123.2h19l0.5-2.3l21-96.6c2.5-3,5.8-5.3,9.6-6.8c5.6-1.5,11.4-2.3,17.2-2h31.9
	c6.3,0.5,6.6,1.8,6.8,5.3c0,1-0.3,2-0.3,3l-20.7,99.9h19.2l20.2-96.1c1-3.5,1.5-7.3,1.8-10.9c0.3-5.3-1.8-10.4-5.8-13.7
	c-4.6-3-9.9-4.8-15.4-4.3h-23.5c1.8-2.3,3.5-5.1,5.3-8.3c3.5-5.8,7.1-12.9,10.6-20.5h48.8l0.5-2.5l2.8-13.4L1391,315.5z
	 M1366.9,427.9l3.5-4.8h-24.3l-22.8,29.9l11.1-54.4h40.7l3.8-16.2h-43l5.1-24.8h41.5l0.5-2.3l3-14.7h-41.5l6.8-33.1h-19.7
	l-15.7,74.9h-21.5l12.1-57.9h-19.2l-12.1,57.9h-30.1l-3.8,16.2h73.6l-16.4,76.9h7.3c-12.4,16.7-28.6,30.1-47.1,39.7
	c-5.8,2.8-11.9,5.3-18,7.1c-2.3,0.8-4.6,1.3-6.8,1.5l-2.3,0.3l-3.5,17.5h3.8c0.5,0,53.1-1,98.9-65.3
	C1345.4,455.9,1366.9,427.9,1366.9,427.9"/>
<linearGradient id="SVGID_1_" gradientUnits="userSpaceOnUse" x1="1239.9762" y1="312.9175" x2="1239.9762" y2="242.2307" gradientTransform="matrix(4.3185 0 0 -4.3185 -5110.9404 1623.9596)">
	<stop  offset="0" style="stop-color:#53C4FE"/>
	<stop  offset="1" style="stop-color:#0D84F4"/>
</linearGradient>
<path class="st1" d="M371.7,455.5c21.8-22.8,19.2-43.8-0.3-61.7c-28.6-26.8-62.5-48.6-97.9-69.1c-34.4-20-70.8-36.4-108.3-49.8
	c-21.3-7.3-44.3,3.5-51.9,24.8c-0.8,2-1.3,4-1.5,6.1c-14.7,78.9-14.7,159.9-0.3,238.8c4,22,25.3,36.7,47.3,32.6c2-0.5,4.3-1,6.3-1.8
	c38.2-13.7,74.9-30.9,109.8-51.4C310,504,344.7,483.6,371.7,455.5z"/>
<linearGradient id="SVGID_2_" gradientUnits="userSpaceOnUse" x1="1202.3246" y1="305.4167" x2="1202.3246" y2="249.7603" gradientTransform="matrix(4.3185 0 0 -4.3185 -5110.9404 1623.9596)">
	<stop  offset="0" style="stop-color:#F9B93B"/>
	<stop  offset="1" style="stop-color:#FA7535"/>
</linearGradient>
<path class="st2" d="M111.7,308.3c-1-0.3-2-0.5-3-1c-21.5-6.6-40.5,1-49.1,24.3c-10.6,29.1-10.1,61.7-10.1,93.6s-0.3,64,9.9,93.1
	c9.4,26.8,27.6,30.9,49.1,24.3c1-0.3,3.8-1.5,4.6-1.8c-6.8-37.7-12.1-75.6-12.1-115.4C101.3,386.2,104.6,347,111.7,308.3
	L111.7,308.3z"/>
<linearGradient id="SVGID_3_" gradientUnits="userSpaceOnUse" x1="1231.4467" y1="304.7029" x2="1231.4467" y2="250.448" gradientTransform="matrix(4.3185 0 0 -4.3185 -5110.9404 1623.9596)">
	<stop  offset="0" style="stop-color:#AEF922"/>
	<stop  offset="1" style="stop-color:#62BB0D"/>
</linearGradient>
<path class="st3" d="M111.4,308.1c-13.9,77.4-14.2,156.8-0.3,234.3c33.9-10.4,67-23.5,98.9-39.5c32.1-15.9,63-32.9,89.3-53.9
	c19.7-15.7,17.7-33.9-0.3-48.6c-26.6-21.5-57.9-38.2-90.8-54.1C177.4,330.8,144.8,318.2,111.4,308.1z"/>
<linearGradient id="SVGID_4_" gradientUnits="userSpaceOnUse" x1="1229.442" y1="290.2867" x2="1229.442" y2="264.9283" gradientTransform="matrix(4.3185 0 0 -4.3185 -5110.9404 1623.9596)">
	<stop  offset="0" style="stop-color:#FFFFFF"/>
	<stop  offset="0.6" style="stop-color:#FFFFFF"/>
	<stop  offset="1" style="stop-color:#E5F6D2"/>
</linearGradient>
<path class="st4" d="M146.1,376.7c0,0-3.3,4.8-3.3,48.3s3.3,48.8,3.3,48.8c1,5.3,3.5,7.1,9.4,5.8c0,0,9.9-1.5,49.1-21.3
	s45.8-27.3,45.8-27.3c4.3-4.3,5.3-7.1,0-11.6c0,0-10.6-9.9-45.8-27.8c-34.7-17.7-49.1-20.7-49.1-20.7
	C150.4,369.4,147.3,370.9,146.1,376.7L146.1,376.7z"/>
</svg>
