<?xml version="1.0" encoding="utf-8"?>
<!-- Generator: Adobe Illustrator 21.0.0, SVG Export Plug-In . SVG Version: 6.00 Build 0)  -->
<svg version="1.1" id="图层_1" xmlns="http://www.w3.org/2000/svg" xmlns:xlink="http://www.w3.org/1999/xlink" x="0px" y="0px"
	 viewBox="0 0 18.2 7.5" style="enable-background:new 0 0 18.2 7.5;" xml:space="preserve">
<style type="text/css">
	.st0{fill:none;stroke:#FFFFFF;stroke-width:0.3;stroke-miterlimit:10;}
	.st1{fill:#FFFFFF;}
</style>
<g>
	<line class="st0" x1="2.7" y1="0.2" x2="1.6" y2="0.7"/>
	<line class="st0" x1="15.5" y1="0.2" x2="2.7" y2="0.2"/>
	<line class="st0" x1="15.5" y1="0.2" x2="16.6" y2="0.7"/>
</g>
<rect x="0.2" y="0.7" class="st0" width="17.9" height="1.2"/>
<g>
	<path class="st1" d="M3.1,3.8v3.2c0,0.2,0.3,0.4,0.8,0.4h10.5c0.4,0,0.8-0.2,0.8-0.4V3.8c0-0.2-0.3-0.4-0.8-0.4H3.8
		C3.4,3.4,3.1,3.6,3.1,3.8z M14.2,7.1H3.9C3.9,7.1,3.8,7,3.8,7V3.9c0,0,0-0.1,0.1-0.1h10.3c0.1,0,0.1,0,0.1,0.1L14.2,7.1
		C14.3,7,14.3,7.1,14.2,7.1z"/>
	<path class="st1" d="M10.5,6.5H6.2c-0.1,0-0.1,0-0.1-0.1V6.1c0,0,0-0.1,0.1-0.1h4.3c0.1,0,0.1,0,0.1,0.1L10.5,6.5
		C10.6,6.5,10.5,6.5,10.5,6.5z M5.2,5.6H4.7c-0.1,0-0.1,0-0.1-0.1V5.2c0,0,0-0.1,0.1-0.1h0.6c0.1,0,0.1,0,0.1,0.1L5.2,5.6
		C5.3,5.6,5.3,5.6,5.2,5.6z M5.2,6.5H4.7c-0.1,0-0.1,0-0.1-0.1V6.1c0,0,0-0.1,0.1-0.1h0.6c0.1,0,0.1,0,0.1,0.1L5.2,6.5
		C5.3,6.5,5.3,6.5,5.2,6.5z M13.5,6.5h-0.6c-0.1,0-0.1,0-0.1-0.1V6.1c0,0,0-0.1,0.1-0.1h0.6c0.1,0,0.1,0,0.1,0.1L13.5,6.5
		C13.6,6.5,13.5,6.5,13.5,6.5z M12,6.5h-0.6c-0.1,0-0.1,0-0.1-0.1V6.1c0,0,0-0.1,0.1-0.1H12c0.1,0,0.1,0,0.1,0.1L12,6.5
		C12.1,6.5,12,6.5,12,6.5z M6.7,5.6H6.2c-0.1,0-0.1,0-0.1-0.1V5.2c0,0,0-0.1,0.1-0.1h0.6c0.1,0,0.1,0,0.1,0.1L6.7,5.6
		C6.8,5.6,6.8,5.6,6.7,5.6z M8.2,5.6H7.7c-0.1,0-0.1,0-0.1-0.1V5.2c0,0,0-0.1,0.1-0.1h0.6c0.1,0,0.1,0,0.1,0.1L8.2,5.6
		C8.3,5.6,8.3,5.6,8.2,5.6z M9.7,5.6H9.2c-0.1,0-0.1,0-0.1-0.1V5.2c0,0,0-0.1,0.1-0.1h0.6c0.1,0,0.1,0,0.1,0.1L9.7,5.6
		C9.8,5.6,9.8,5.6,9.7,5.6z M11.2,5.6h-0.6c-0.1,0-0.1,0-0.1-0.1V5.2c0,0,0-0.1,0.1-0.1h0.6c0.1,0,0.1,0,0.1,0.1L11.2,5.6
		C11.3,5.6,11.3,5.6,11.2,5.6z M5.6,4.8H4.7c-0.1,0-0.1,0-0.1-0.1V4.4c0,0,0-0.1,0.1-0.1h0.9c0.1,0,0.1,0,0.1,0.1L5.6,4.8
		C5.7,4.8,5.7,4.8,5.6,4.8z M7.3,4.8H6.4c-0.1,0-0.1,0-0.1-0.1V4.4c0,0,0-0.1,0.1-0.1h0.9c0.1,0,0.1,0,0.1,0.1L7.3,4.8
		C7.4,4.8,7.4,4.8,7.3,4.8z M9,4.8H8.1C8,4.8,8,4.8,8,4.8V4.4c0,0,0-0.1,0.1-0.1H9c0.1,0,0.1,0,0.1,0.1L9,4.8C9.1,4.8,9,4.8,9,4.8z
		 M12.4,4.8h-0.9c-0.1,0-0.1,0-0.1-0.1V4.4c0,0,0-0.1,0.1-0.1h0.9c0.1,0,0.1,0,0.1,0.1L12.4,4.8C12.5,4.8,12.4,4.8,12.4,4.8z
		 M10.7,4.8H9.7c-0.1,0-0.1,0-0.1-0.1V4.4c0,0,0-0.1,0.1-0.1h0.9c0.1,0,0.1,0,0.1,0.1L10.7,4.8C10.8,4.8,10.7,4.8,10.7,4.8z"/>
	<path class="st1" d="M13.6,4.4v1c0,0.1-0.1,0.2-0.3,0.2h-1c0,0-0.1,0-0.1-0.1V5.2c0,0,0-0.1,0.1-0.1h0.6c0,0,0.1,0,0.1-0.1V4.4
		c0,0,0-0.1,0.1-0.1L13.6,4.4C13.6,4.4,13.6,4.4,13.6,4.4z"/>
</g>
</svg>
